NotoSansArmenian-Condensed.ufo
<glyph name="dieresiscomb" format="2">
  <unicode hex="0308"/>
  <anchor x="1" y="537" name="_top"/>
  <outline>
    <contour>
      <point x="-124" y="668" type="curve" smooth="yes"/>
      <point x="-124" y="633"/>
      <point x="-105" y="616"/>
      <point x="-81" y="616" type="curve" smooth="yes"/>
      <point x="-57" y="616"/>
      <point x="-39" y="633"/>
      <point x="-39" y="668" type="curve" smooth="yes"/>
      <point x="-39" y="701"/>
      <point x="-57" y="718"/>
      <point x="-81" y="718" type="curve" smooth="yes"/>
      <point x="-105" y="718"/>
      <point x="-124" y="702"/>
    </contour>
    <contour>
      <point x="39" y="668" type="curve" smooth="yes"/>
      <point x="39" y="633"/>
      <point x="57" y="616"/>
      <point x="82" y="616" type="curve" smooth="yes"/>
      <point x="106" y="616"/>
      <point x="125" y="633"/>
      <point x="125" y="668" type="curve" smooth="yes"/>
      <point x="125" y="701"/>
      <point x="106" y="718"/>
      <point x="82" y="718" type="curve" smooth="yes"/>
      <point x="58" y="718"/>
      <point x="39" y="702"/>
    </contour>
  </outline>
</glyph>
<glyph name="uni0531" format="2">
  <advance width="604"/>
  <unicode hex="0531"/>
  <note>
uni0531
</note>
  <anchor x="264" y="714" name="top"/>
  <outline>
    <contour>
      <point x="263" y="-10" type="curve" smooth="yes"/>
      <point x="382" y="-10"/>
      <point x="462" y="56"/>
      <point x="462" y="227" type="curve" smooth="yes"/>
      <point x="462" y="714" type="line"/>
      <point x="378" y="714" type="line"/>
      <point x="378" y="231" type="line" smooth="yes"/>
      <point x="378" y="104"/>
      <point x="334" y="64"/>
      <point x="264" y="64" type="curve" smooth="yes"/>
      <point x="191" y="64"/>
      <point x="149" y="110"/>
      <point x="149" y="231" type="curve" smooth="yes"/>
      <point x="149" y="714" type="line"/>
      <point x="66" y="714" type="line"/>
      <point x="66" y="225" type="line" smooth="yes"/>
      <point x="66" y="64"/>
      <point x="136" y="-10"/>
    </contour>
    <contour>
      <point x="454" y="220" type="curve"/>
      <point x="439" y="148" type="line"/>
      <point x="446" y="151"/>
      <point x="456" y="152"/>
      <point x="467" y="152" type="curve" smooth="yes"/>
      <point x="503" y="152"/>
      <point x="519" y="127"/>
      <point x="519" y="73" type="curve" smooth="yes"/>
      <point x="519" y="-2" type="line"/>
      <point x="593" y="-2" type="line"/>
      <point x="593" y="78" type="line" smooth="yes"/>
      <point x="593" y="176"/>
      <point x="555" y="223"/>
      <point x="481" y="223" type="curve" smooth="yes"/>
      <point x="472" y="223"/>
      <point x="461" y="222"/>
    </contour>
  </outline>
</glyph>
<glyph name="uni0533" format="2">
  <advance width="563"/>
  <unicode hex="0533"/>
  <note>
uni0533
</note>
  <outline>
    <contour>
      <point x="439" y="0" type="line"/>
      <point x="439" y="487" type="line" smooth="yes"/>
      <point x="439" y="658"/>
      <point x="360" y="724"/>
      <point x="241" y="724" type="curve" smooth="yes"/>
      <point x="118" y="724"/>
      <point x="44" y="648"/>
      <point x="44" y="488" type="curve" smooth="yes"/>
      <point x="44" y="351"/>
      <point x="113" y="269"/>
      <point x="241" y="269" type="curve" smooth="yes"/>
      <point x="550" y="269" type="line"/>
      <point x="550" y="343" type="line"/>
      <point x="250" y="343" type="line" smooth="yes"/>
      <point x="168" y="343"/>
      <point x="127" y="396"/>
      <point x="127" y="488" type="curve" smooth="yes"/>
      <point x="127" y="602"/>
      <point x="167" y="650"/>
      <point x="241" y="650" type="curve" smooth="yes"/>
      <point x="312" y="650"/>
      <point x="356" y="610"/>
      <point x="356" y="483" type="curve" smooth="yes"/>
      <point x="356" y="0" type="line"/>
    </contour>
  </outline>
</glyph>
<glyph name="uni0535" format="2">
  <advance width="515"/>
  <unicode hex="0535"/>
  <note>
uni0535
</note>
  <outline>
    <contour>
      <point x="66" y="714" type="line"/>
      <point x="66" y="227" type="line" smooth="yes"/>
      <point x="66" y="56"/>
      <point x="146" y="-10"/>
      <point x="265" y="-10" type="curve" smooth="yes"/>
      <point x="400" y="-10"/>
      <point x="462" y="63"/>
      <point x="462" y="246" type="curve"/>
      <point x="378" y="246" type="line"/>
      <point x="378" y="112"/>
      <point x="341" y="64"/>
      <point x="264" y="64" type="curve" smooth="yes"/>
      <point x="194" y="64"/>
      <point x="149" y="104"/>
      <point x="149" y="231" type="curve" smooth="yes"/>
      <point x="149" y="714" type="line"/>
    </contour>
    <contour>
      <point x="138" y="529" type="line"/>
      <point x="461" y="529" type="line"/>
      <point x="461" y="603" type="line"/>
      <point x="138" y="603" type="line"/>
    </contour>
  </outline>
</glyph>
<glyph name="uni0536" format="2">
  <advance width="477"/>
  <unicode hex="0536"/>
  <note>
uni0536
</note>
  <outline>
    <contour>
      <point x="217" y="285" type="curve" smooth="yes"/>
      <point x="329" y="285"/>
      <point x="408" y="401"/>
      <point x="408" y="499" type="curve" smooth="yes"/>
      <point x="408" y="636"/>
      <point x="344" y="726"/>
      <point x="228" y="726" type="curve" smooth="yes"/>
      <point x="120" y="726"/>
      <point x="46" y="642"/>
      <point x="46" y="508" type="curve" smooth="yes"/>
      <point x="46" y="381"/>
      <point x="115" y="285"/>
    </contour>
    <contour>
      <point x="371" y="0" type="line"/>
      <point x="448" y="0" type="line"/>
      <point x="448" y="58" type="line" smooth="yes"/>
      <point x="448" y="136"/>
      <point x="414" y="170"/>
      <point x="341" y="170" type="curve" smooth="yes"/>
      <point x="132" y="170" type="line"/>
      <point x="132" y="228" type="line"/>
      <point x="54" y="228" type="line"/>
      <point x="54" y="0" type="line"/>
      <point x="132" y="0" type="line"/>
      <point x="132" y="96" type="line"/>
      <point x="310" y="96" type="line" smooth="yes"/>
      <point x="358" y="96"/>
      <point x="371" y="75"/>
      <point x="371" y="35" type="curve" smooth="yes"/>
    </contour>
    <contour>
      <point x="134" y="111" type="line"/>
      <point x="275" y="111"/>
      <point x="408" y="236"/>
      <point x="408" y="499" type="curve"/>
      <point x="331" y="499" type="line"/>
      <point x="331" y="279"/>
      <point x="240" y="170"/>
      <point x="134" y="170" type="curve"/>
    </contour>
    <contour>
      <point x="227" y="359" type="curve" smooth="yes"/>
      <point x="160" y="359"/>
      <point x="129" y="419"/>
      <point x="129" y="506" type="curve" smooth="yes"/>
      <point x="129" y="598"/>
      <point x="163" y="652"/>
      <point x="228" y="652" type="curve" smooth="yes"/>
      <point x="298" y="652"/>
      <point x="325" y="589"/>
      <point x="325" y="506" type="curve" smooth="yes"/>
      <point x="325" y="419"/>
      <point x="296" y="359"/>
    </contour>
  </outline>
</glyph>
<glyph name="uni0537" format="2">
  <advance width="453"/>
  <unicode hex="0537"/>
  <note>
uni0537
</note>
  <outline>
    <contour>
      <point x="117" y="495" type="line"/>
      <point x="117" y="421" type="line"/>
      <point x="390" y="421" type="line"/>
      <point x="390" y="495" type="line"/>
    </contour>
    <contour>
      <point x="247" y="0" type="line" smooth="yes"/>
      <point x="301" y="0"/>
      <point x="316" y="-23"/>
      <point x="316" y="-69" type="curve" smooth="yes"/>
      <point x="316" y="-145" type="line"/>
      <point x="399" y="-145" type="line"/>
      <point x="399" y="-54" type="line" smooth="yes"/>
      <point x="399" y="33"/>
      <point x="357" y="74"/>
      <point x="276" y="74" type="curve" smooth="yes"/>
      <point x="152" y="74" type="line"/>
      <point x="152" y="716" type="line"/>
      <point x="69" y="716" type="line"/>
      <point x="69" y="0" type="line"/>
    </contour>
  </outline>
</glyph>
<glyph name="uni0539" format="2">
  <advance width="645"/>
  <unicode hex="0539"/>
  <note>
uni0539
</note>
  <outline>
    <contour>
      <point x="66" y="0" type="line"/>
      <point x="149" y="0" type="line"/>
      <point x="149" y="483" type="line" smooth="yes"/>
      <point x="149" y="600"/>
      <point x="199" y="650"/>
      <point x="298" y="650" type="curve" smooth="yes"/>
      <point x="403" y="650"/>
      <point x="447" y="590"/>
      <point x="447" y="447" type="curve"/>
      <point x="530" y="447" type="line"/>
      <point x="530" y="635"/>
      <point x="460" y="724"/>
      <point x="299" y="724" type="curve" smooth="yes"/>
      <point x="153" y="724"/>
      <point x="66" y="648"/>
      <point x="66" y="487" type="curve" smooth="yes"/>
    </contour>
    <contour>
      <point x="632" y="487" type="line"/>
      <point x="382" y="487" type="line" smooth="yes"/>
      <point x="281" y="487"/>
      <point x="227" y="428"/>
      <point x="227" y="317" type="curve" smooth="yes"/>
      <point x="227" y="215"/>
      <point x="285" y="153"/>
      <point x="374" y="153" type="curve" smooth="yes"/>
      <point x="469" y="153"/>
      <point x="528" y="224"/>
      <point x="530" y="413" type="curve"/>
      <point x="632" y="413" type="line"/>
    </contour>
    <contour>
      <point x="446" y="413" type="line"/>
      <point x="446" y="281"/>
      <point x="426" y="227"/>
      <point x="374" y="227" type="curve" smooth="yes"/>
      <point x="332" y="227"/>
      <point x="311" y="259"/>
      <point x="311" y="314" type="curve" smooth="yes"/>
      <point x="311" y="383"/>
      <point x="339" y="413"/>
      <point x="397" y="413" type="curve" smooth="yes"/>
    </contour>
  </outline>
</glyph>
<glyph name="uni053A" format="2">
  <advance width="563"/>
  <unicode hex="053A"/>
  <note>
uni053A
</note>
  <outline>
    <contour>
      <point x="439" y="714" type="line"/>
      <point x="356" y="714" type="line"/>
      <point x="356" y="231" type="line" smooth="yes"/>
      <point x="356" y="104"/>
      <point x="312" y="64"/>
      <point x="241" y="64" type="curve" smooth="yes"/>
      <point x="167" y="64"/>
      <point x="127" y="114"/>
      <point x="127" y="240" type="curve"/>
      <point x="44" y="240" type="line"/>
      <point x="44" y="68"/>
      <point x="118" y="-10"/>
      <point x="241" y="-10" type="curve" smooth="yes"/>
      <point x="360" y="-10"/>
      <point x="439" y="56"/>
      <point x="439" y="227" type="curve" smooth="yes"/>
    </contour>
    <contour>
      <point x="247" y="491" type="line" smooth="yes"/>
      <point x="119" y="491"/>
      <point x="44" y="401"/>
      <point x="44" y="240" type="curve"/>
      <point x="127" y="240" type="line"/>
      <point x="127" y="356"/>
      <point x="174" y="417"/>
      <point x="256" y="417" type="curve" smooth="yes"/>
      <point x="550" y="417" type="line"/>
      <point x="550" y="491" type="line"/>
    </contour>
  </outline>
</glyph>
<glyph name="uni053B" format="2">
  <advance width="495"/>
  <unicode hex="053B"/>
  <note>
uni053B
</note>
  <outline>
    <contour>
      <point x="69" y="714" type="line"/>
      <point x="69" y="0" type="line"/>
      <point x="152" y="0" type="line"/>
      <point x="152" y="436" type="line"/>
      <point x="147" y="436" type="line"/>
      <point x="150" y="465"/>
      <point x="152" y="498"/>
      <point x="152" y="535" type="curve" smooth="yes"/>
      <point x="152" y="714" type="line"/>
    </contour>
    <contour>
      <point x="142" y="246" type="line"/>
      <point x="153" y="246" type="line"/>
      <point x="153" y="310" type="line" smooth="yes"/>
      <point x="153" y="385"/>
      <point x="197" y="444"/>
      <point x="271" y="444" type="curve" smooth="yes"/>
      <point x="350" y="444"/>
      <point x="370" y="403"/>
      <point x="370" y="316" type="curve" smooth="yes"/>
      <point x="370" y="236" type="line"/>
      <point x="454" y="236" type="line"/>
      <point x="454" y="344" type="line" smooth="yes"/>
      <point x="454" y="461"/>
      <point x="404" y="518"/>
      <point x="296" y="518" type="curve" smooth="yes"/>
      <point x="237" y="518"/>
      <point x="183" y="494"/>
      <point x="142" y="419" type="curve"/>
    </contour>
  </outline>
</glyph>
<glyph name="uni053C" format="2">
  <advance width="302"/>
  <unicode hex="053C"/>
  <note>
uni053C
</note>
  <outline>
    <contour>
      <point x="69" y="0" type="line"/>
      <point x="288" y="0" type="line"/>
      <point x="288" y="74" type="line"/>
      <point x="152" y="74" type="line"/>
      <point x="152" y="714" type="line"/>
      <point x="69" y="714" type="line"/>
    </contour>
  </outline>
</glyph>
<glyph name="uni053D" format="2">
  <advance width="615"/>
  <unicode hex="053D"/>
  <note>
uni053D
</note>
  <outline>
    <contour>
      <point x="69" y="-2" type="line"/>
      <point x="152" y="-2" type="line"/>
      <point x="152" y="716" type="line"/>
      <point x="69" y="716" type="line"/>
    </contour>
    <contour>
      <point x="269" y="526" type="line"/>
      <point x="269" y="355" type="line" smooth="yes"/>
      <point x="269" y="241"/>
      <point x="322" y="186"/>
      <point x="422" y="186" type="curve" smooth="yes"/>
      <point x="519" y="186"/>
      <point x="573" y="245"/>
      <point x="573" y="359" type="curve" smooth="yes"/>
      <point x="573" y="526" type="line"/>
      <point x="490" y="526" type="line"/>
      <point x="490" y="366" type="line" smooth="yes"/>
      <point x="490" y="287"/>
      <point x="466" y="260"/>
      <point x="422" y="260" type="curve" smooth="yes"/>
      <point x="376" y="260"/>
      <point x="352" y="287"/>
      <point x="352" y="366" type="curve" smooth="yes"/>
      <point x="352" y="526" type="line"/>
    </contour>
    <contour>
      <point x="103" y="526" type="line"/>
      <point x="103" y="452" type="line"/>
      <point x="324" y="452" type="line"/>
      <point x="324" y="526" type="line"/>
    </contour>
  </outline>
</glyph>
<glyph name="uni053E" format="2">
  <advance width="507"/>
  <unicode hex="053E"/>
  <note>
uni053E
</note>
  <outline>
    <contour>
      <point x="40" y="255" type="curve" smooth="yes"/>
      <point x="40" y="94"/>
      <point x="116" y="-10"/>
      <point x="253" y="-10" type="curve" smooth="yes"/>
      <point x="385" y="-10"/>
      <point x="464" y="89"/>
      <point x="464" y="254" type="curve" smooth="yes"/>
      <point x="464" y="411"/>
      <point x="387" y="512"/>
      <point x="229" y="577" type="curve" smooth="yes"/>
      <point x="142" y="613"/>
      <point x="128" y="633"/>
      <point x="128" y="714" type="curve"/>
      <point x="48" y="714" type="line"/>
      <point x="48" y="603"/>
      <point x="74" y="562"/>
      <point x="177" y="520" type="curve" smooth="yes"/>
      <point x="319" y="462"/>
      <point x="380" y="387"/>
      <point x="380" y="253" type="curve" smooth="yes"/>
      <point x="380" y="129"/>
      <point x="341" y="64"/>
      <point x="251" y="64" type="curve" smooth="yes"/>
      <point x="167" y="64"/>
      <point x="124" y="132"/>
      <point x="124" y="253" type="curve" smooth="yes"/>
      <point x="124" y="468"/>
      <point x="287" y="650"/>
      <point x="461" y="650" type="curve"/>
      <point x="461" y="724" type="line"/>
      <point x="250" y="724"/>
      <point x="40" y="502"/>
    </contour>
  </outline>
</glyph>
<glyph name="uni053F" format="2">
  <advance width="495"/>
  <unicode hex="053F"/>
  <note>
uni053F
</note>
  <outline>
    <contour>
      <point x="425" y="0" type="line"/>
      <point x="425" y="564" type="line"/>
      <point x="342" y="564" type="line"/>
      <point x="342" y="302" type="line"/>
      <point x="347" y="302" type="line"/>
      <point x="344" y="273"/>
      <point x="342" y="240"/>
      <point x="342" y="203" type="curve" smooth="yes"/>
      <point x="342" y="0" type="line"/>
    </contour>
    <contour>
      <point x="353" y="482" type="line"/>
      <point x="342" y="482" type="line"/>
      <point x="342" y="421" type="line" smooth="yes"/>
      <point x="342" y="351"/>
      <point x="298" y="284"/>
      <point x="230" y="284" type="curve" smooth="yes"/>
      <point x="145" y="284"/>
      <point x="124" y="325"/>
      <point x="124" y="412" type="curve" smooth="yes"/>
      <point x="124" y="714" type="line"/>
      <point x="41" y="714" type="line"/>
      <point x="41" y="384" type="line" smooth="yes"/>
      <point x="41" y="267"/>
      <point x="91" y="210"/>
      <point x="205" y="210" type="curve" smooth="yes"/>
      <point x="261" y="210"/>
      <point x="336" y="243"/>
      <point x="353" y="338" type="curve" smooth="yes"/>
    </contour>
  </outline>
</glyph>
<glyph name="uni0540" format="2">
  <advance width="435"/>
  <unicode hex="0540"/>
  <note>
uni0540
</note>
  <outline>
    <contour>
      <point x="383" y="623" type="curve"/>
      <point x="427" y="685" type="line"/>
      <point x="389" y="713"/>
      <point x="348" y="724"/>
      <point x="300" y="724" type="curve" smooth="yes"/>
      <point x="193" y="724"/>
      <point x="126" y="671"/>
      <point x="99" y="493" type="curve" smooth="yes"/>
      <point x="35" y="78" type="line"/>
      <point x="117" y="64" type="line"/>
      <point x="181" y="474" type="line" smooth="yes"/>
      <point x="202" y="611"/>
      <point x="240" y="650"/>
      <point x="306" y="650" type="curve" smooth="yes"/>
      <point x="333" y="650"/>
      <point x="360" y="641"/>
    </contour>
    <contour>
      <point x="35" y="78" type="line"/>
      <point x="248" y="25" type="line" smooth="yes"/>
      <point x="294" y="14"/>
      <point x="308" y="-8"/>
      <point x="308" y="-49" type="curve" smooth="yes"/>
      <point x="308" y="-95" type="line"/>
      <point x="391" y="-95" type="line"/>
      <point x="391" y="-43" type="line" smooth="yes"/>
      <point x="391" y="33"/>
      <point x="365" y="69"/>
      <point x="284" y="90" type="curve" smooth="yes"/>
      <point x="67" y="146" type="line"/>
    </contour>
  </outline>
</glyph>
<glyph name="uni0541" format="2">
  <advance width="455"/>
  <unicode hex="0541"/>
  <note>
uni0541
</note>
  <outline>
    <contour>
      <point x="222" y="724" type="curve" smooth="yes"/>
      <point x="112" y="724"/>
      <point x="40" y="640"/>
      <point x="40" y="508" type="curve" smooth="yes"/>
      <point x="40" y="381"/>
      <point x="100" y="310"/>
      <point x="205" y="310" type="curve" smooth="yes"/>
      <point x="248" y="310"/>
      <point x="292" y="322"/>
      <point x="328" y="348" type="curve"/>
      <point x="328" y="419" type="line"/>
      <point x="299" y="395"/>
      <point x="252" y="380"/>
      <point x="215" y="380" type="curve" smooth="yes"/>
      <point x="157" y="380"/>
      <point x="123" y="427"/>
      <point x="123" y="510" type="curve" smooth="yes"/>
      <point x="123" y="599"/>
      <point x="156" y="650"/>
      <point x="222" y="650" type="curve" smooth="yes"/>
      <point x="289" y="650"/>
      <point x="319" y="589"/>
      <point x="319" y="450" type="curve" smooth="yes"/>
      <point x="319" y="192"/>
      <point x="244" y="56"/>
      <point x="171" y="56" type="curve"/>
      <point x="171" y="-10" type="line"/>
      <point x="297" y="-10"/>
      <point x="403" y="153"/>
      <point x="403" y="436" type="curve" smooth="yes"/>
      <point x="403" y="632"/>
      <point x="339" y="724"/>
    </contour>
    <contour>
      <point x="426" y="-18" type="curve"/>
      <point x="426" y="81" type="line"/>
      <point x="328" y="210"/>
      <point x="256" y="258"/>
      <point x="166" y="258" type="curve" smooth="yes"/>
      <point x="85" y="258"/>
      <point x="36" y="205"/>
      <point x="36" y="124" type="curve" smooth="yes"/>
      <point x="36" y="38"/>
      <point x="82" y="-10"/>
      <point x="171" y="-10" type="curve"/>
      <point x="171" y="56" type="line"/>
      <point x="133" y="56"/>
      <point x="112" y="82"/>
      <point x="112" y="124" type="curve" smooth="yes"/>
      <point x="112" y="166"/>
      <point x="132" y="193"/>
      <point x="171" y="193" type="curve" smooth="yes"/>
      <point x="241" y="193"/>
      <point x="337" y="117"/>
    </contour>
  </outline>
</glyph>
<glyph name="uni0542" format="2">
  <advance width="581"/>
  <unicode hex="0542"/>
  <note>
uni0542
</note>
  <outline>
    <contour>
      <point x="437" y="0" type="line"/>
      <point x="437" y="489" type="line" smooth="yes"/>
      <point x="437" y="650"/>
      <point x="367" y="724"/>
      <point x="240" y="724" type="curve" smooth="yes"/>
      <point x="121" y="724"/>
      <point x="41" y="651"/>
      <point x="41" y="467" type="curve"/>
      <point x="124" y="467" type="line"/>
      <point x="124" y="610"/>
      <point x="169" y="650"/>
      <point x="239" y="650" type="curve" smooth="yes"/>
      <point x="312" y="650"/>
      <point x="353" y="604"/>
      <point x="353" y="483" type="curve" smooth="yes"/>
      <point x="353" y="0" type="line"/>
    </contour>
    <contour>
      <point x="428" y="74" type="line"/>
      <point x="428" y="0" type="line"/>
      <point x="568" y="0" type="line"/>
      <point x="568" y="74" type="line"/>
    </contour>
  </outline>
</glyph>
<glyph name="uni0543" format="2">
  <advance width="529"/>
  <unicode hex="0543"/>
  <note>
uni0543
</note>
  <outline>
    <contour>
      <point x="467" y="650" type="curve"/>
      <point x="467" y="724" type="line"/>
      <point x="256" y="704"/>
      <point x="46" y="492"/>
      <point x="46" y="195" type="curve" smooth="yes"/>
      <point x="46" y="50"/>
      <point x="95" y="0"/>
      <point x="227" y="0" type="curve" smooth="yes"/>
      <point x="470" y="0" type="line"/>
      <point x="470" y="254" type="line" smooth="yes"/>
      <point x="470" y="417"/>
      <point x="432" y="558"/>
      <point x="228" y="608" type="curve" smooth="yes"/>
      <point x="48" y="652" type="line"/>
      <point x="48" y="574" type="line"/>
      <point x="196" y="538" type="line" smooth="yes"/>
      <point x="359" y="498"/>
      <point x="386" y="387"/>
      <point x="386" y="253" type="curve" smooth="yes"/>
      <point x="386" y="74" type="line"/>
      <point x="233" y="74" type="line" smooth="yes"/>
      <point x="160" y="74"/>
      <point x="130" y="97"/>
      <point x="130" y="196" type="curve" smooth="yes"/>
      <point x="130" y="458"/>
      <point x="301" y="632"/>
    </contour>
  </outline>
</glyph>
<glyph name="uni0544" format="2">
  <advance width="605"/>
  <unicode hex="0544"/>
  <note>
uni0544
</note>
  <outline>
    <contour>
      <point x="265" y="-10" type="curve" smooth="yes"/>
      <point x="392" y="-10"/>
      <point x="462" y="64"/>
      <point x="462" y="225" type="curve" smooth="yes"/>
      <point x="462" y="640" type="line"/>
      <point x="593" y="640" type="line"/>
      <point x="593" y="714" type="line"/>
      <point x="378" y="714" type="line"/>
      <point x="378" y="231" type="line" smooth="yes"/>
      <point x="378" y="110"/>
      <point x="337" y="64"/>
      <point x="264" y="64" type="curve" smooth="yes"/>
      <point x="194" y="64"/>
      <point x="149" y="104"/>
      <point x="149" y="231" type="curve" smooth="yes"/>
      <point x="149" y="714" type="line"/>
      <point x="66" y="714" type="line"/>
      <point x="66" y="227" type="line" smooth="yes"/>
      <point x="66" y="56"/>
      <point x="146" y="-10"/>
    </contour>
  </outline>
</glyph>
<glyph name="uni0545" format="2">
  <advance width="449"/>
  <unicode hex="0545"/>
  <note>
uni0545
</note>
  <outline>
    <contour>
      <point x="379" y="552" type="curve" smooth="yes"/>
      <point x="379" y="657"/>
      <point x="314" y="724"/>
      <point x="210" y="724" type="curve" smooth="yes"/>
      <point x="142" y="724"/>
      <point x="96" y="706"/>
      <point x="52" y="665" type="curve"/>
      <point x="87" y="603" type="line"/>
      <point x="115" y="632"/>
      <point x="149" y="650"/>
      <point x="194" y="650" type="curve" smooth="yes"/>
      <point x="257" y="650"/>
      <point x="295" y="610"/>
      <point x="295" y="540" type="curve" smooth="yes"/>
      <point x="295" y="451"/>
      <point x="247" y="407"/>
      <point x="160" y="407" type="curve" smooth="yes"/>
      <point x="36" y="407" type="line"/>
      <point x="36" y="333" type="line"/>
      <point x="163" y="333" type="line" smooth="yes"/>
      <point x="259" y="333"/>
      <point x="309" y="289"/>
      <point x="309" y="201" type="curve" smooth="yes"/>
      <point x="309" y="105"/>
      <point x="260" y="64"/>
      <point x="177" y="64" type="curve" smooth="yes"/>
      <point x="136" y="64"/>
      <point x="82" y="77"/>
      <point x="46" y="100" type="curve"/>
      <point x="46" y="19" type="line"/>
      <point x="87" y="0"/>
      <point x="136" y="-10"/>
      <point x="188" y="-10" type="curve" smooth="yes"/>
      <point x="327" y="-10"/>
      <point x="395" y="71"/>
      <point x="395" y="194" type="curve" smooth="yes"/>
      <point x="395" y="295"/>
      <point x="346" y="359"/>
      <point x="256" y="370" type="curve"/>
      <point x="256" y="373" type="line"/>
      <point x="335" y="393"/>
      <point x="379" y="455"/>
    </contour>
  </outline>
</glyph>
<glyph name="uni0546" format="2">
  <advance width="502"/>
  <unicode hex="0546"/>
  <note>
uni0546
</note>
  <outline>
    <contour>
      <point x="254" y="-10" type="curve" smooth="yes"/>
      <point x="373" y="-10"/>
      <point x="456" y="56"/>
      <point x="456" y="227" type="curve" smooth="yes"/>
      <point x="456" y="416" type="line"/>
      <point x="372" y="416" type="line"/>
      <point x="372" y="231" type="line" smooth="yes"/>
      <point x="372" y="104"/>
      <point x="325" y="64"/>
      <point x="255" y="64" type="curve" smooth="yes"/>
      <point x="182" y="64"/>
      <point x="137" y="110"/>
      <point x="137" y="244" type="curve"/>
      <point x="54" y="244" type="line"/>
      <point x="54" y="64"/>
      <point x="127" y="-10"/>
    </contour>
    <contour>
      <point x="234" y="631" type="line"/>
      <point x="188" y="631" type="line" smooth="yes"/>
      <point x="141" y="631"/>
      <point x="124" y="646"/>
      <point x="124" y="695" type="curve" smooth="yes"/>
      <point x="124" y="760" type="line"/>
      <point x="41" y="760" type="line"/>
      <point x="41" y="692" type="line" smooth="yes"/>
      <point x="41" y="599"/>
      <point x="75" y="569"/>
      <point x="153" y="569" type="curve" smooth="yes"/>
      <point x="197" y="569" type="line"/>
      <point x="240" y="623" type="line"/>
    </contour>
    <contour>
      <point x="137" y="244" type="line"/>
      <point x="137" y="380"/>
      <point x="173" y="492"/>
      <point x="239" y="623" type="curve"/>
      <point x="160" y="623" type="line"/>
      <point x="92" y="493"/>
      <point x="54" y="380"/>
      <point x="54" y="244" type="curve"/>
    </contour>
  </outline>
</glyph>
<glyph name="uni0547" format="2">
  <advance width="520"/>
  <unicode hex="0547"/>
  <note>
uni0547
</note>
  <outline>
    <contour>
      <point x="306" y="604" type="curve"/>
      <point x="256" y="655" type="line"/>
      <point x="128" y="535"/>
      <point x="54" y="395"/>
      <point x="54" y="225" type="curve" smooth="yes"/>
      <point x="54" y="64"/>
      <point x="127" y="-10"/>
      <point x="254" y="-10" type="curve" smooth="yes"/>
      <point x="373" y="-10"/>
      <point x="456" y="56"/>
      <point x="456" y="227" type="curve" smooth="yes"/>
      <point x="456" y="298" type="line"/>
      <point x="372" y="298" type="line"/>
      <point x="372" y="231" type="line" smooth="yes"/>
      <point x="372" y="104"/>
      <point x="325" y="64"/>
      <point x="255" y="64" type="curve" smooth="yes"/>
      <point x="182" y="64"/>
      <point x="137" y="110"/>
      <point x="137" y="221" type="curve" smooth="yes"/>
      <point x="137" y="373"/>
      <point x="201" y="499"/>
    </contour>
    <contour>
      <point x="66" y="724" type="line"/>
      <point x="50" y="648" type="line"/>
      <point x="459" y="539" type="line"/>
      <point x="475" y="615" type="line"/>
    </contour>
  </outline>
</glyph>
<glyph name="uni0548" format="2">
  <advance width="527"/>
  <unicode hex="0548"/>
  <note>
uni0548
</note>
  <anchor x="263" y="714" name="top"/>
  <outline>
    <contour>
      <point x="66" y="0" type="line"/>
      <point x="149" y="0" type="line"/>
      <point x="149" y="483" type="line" smooth="yes"/>
      <point x="149" y="610"/>
      <point x="194" y="650"/>
      <point x="264" y="650" type="curve" smooth="yes"/>
      <point x="337" y="650"/>
      <point x="378" y="604"/>
      <point x="378" y="483" type="curve" smooth="yes"/>
      <point x="378" y="0" type="line"/>
      <point x="462" y="0" type="line"/>
      <point x="462" y="489" type="line" smooth="yes"/>
      <point x="462" y="650"/>
      <point x="392" y="724"/>
      <point x="265" y="724" type="curve" smooth="yes"/>
      <point x="146" y="724"/>
      <point x="66" y="658"/>
      <point x="66" y="487" type="curve" smooth="yes"/>
    </contour>
  </outline>
</glyph>
<glyph name="uni0549" format="2">
  <advance width="496"/>
  <unicode hex="0549"/>
  <note>
uni0549
</note>
  <outline>
    <contour>
      <point x="258" y="97" type="line"/>
      <point x="383" y="218"/>
      <point x="446" y="367"/>
      <point x="446" y="511" type="curve" smooth="yes"/>
      <point x="446" y="650"/>
      <point x="373" y="724"/>
      <point x="246" y="724" type="curve" smooth="yes"/>
      <point x="127" y="724"/>
      <point x="44" y="658"/>
      <point x="44" y="487" type="curve" smooth="yes"/>
      <point x="44" y="458" type="line"/>
      <point x="127" y="458" type="line"/>
      <point x="127" y="483" type="line" smooth="yes"/>
      <point x="127" y="610"/>
      <point x="175" y="650"/>
      <point x="245" y="650" type="curve" smooth="yes"/>
      <point x="318" y="650"/>
      <point x="362" y="604"/>
      <point x="362" y="508" type="curve" smooth="yes"/>
      <point x="362" y="371"/>
      <point x="294" y="233"/>
      <point x="180" y="122" type="curve"/>
    </contour>
    <contour>
      <point x="425" y="0" type="curve"/>
      <point x="425" y="76" type="line"/>
      <point x="289" y="112"/>
      <point x="191" y="166"/>
      <point x="96" y="274" type="curve"/>
      <point x="39" y="221" type="line"/>
      <point x="138" y="94"/>
      <point x="284" y="28"/>
    </contour>
  </outline>
</glyph>
<glyph name="uni054A" format="2">
  <advance width="582"/>
  <unicode hex="054A"/>
  <note>
uni054A
</note>
  <outline>
    <contour>
      <point x="50" y="330" type="line"/>
      <point x="133" y="330" type="line"/>
      <point x="133" y="483" type="line" smooth="yes"/>
      <point x="133" y="610"/>
      <point x="189" y="650"/>
      <point x="283" y="650" type="curve" smooth="yes"/>
      <point x="379" y="650"/>
      <point x="433" y="604"/>
      <point x="433" y="483" type="curve" smooth="yes"/>
      <point x="433" y="0" type="line"/>
      <point x="516" y="0" type="line"/>
      <point x="516" y="489" type="line" smooth="yes"/>
      <point x="516" y="650"/>
      <point x="433" y="724"/>
      <point x="284" y="724" type="curve" smooth="yes"/>
      <point x="142" y="724"/>
      <point x="50" y="658"/>
      <point x="50" y="487" type="curve" smooth="yes"/>
    </contour>
    <contour>
      <point x="241" y="166" type="line"/>
      <point x="324" y="166" type="line"/>
      <point x="324" y="674" type="line"/>
      <point x="241" y="674" type="line"/>
    </contour>
  </outline>
</glyph>
<glyph name="uni054B" format="2">
  <advance width="481"/>
  <unicode hex="054B"/>
  <note>
uni054B
</note>
  <outline>
    <contour>
      <point x="385" y="0" type="line"/>
      <point x="462" y="0" type="line"/>
      <point x="462" y="58" type="line" smooth="yes"/>
      <point x="462" y="136"/>
      <point x="428" y="170"/>
      <point x="355" y="170" type="curve" smooth="yes"/>
      <point x="112" y="170" type="line"/>
      <point x="112" y="220" type="line"/>
      <point x="38" y="220" type="line"/>
      <point x="38" y="0" type="line"/>
      <point x="112" y="0" type="line"/>
      <point x="112" y="96" type="line"/>
      <point x="324" y="96" type="line" smooth="yes"/>
      <point x="372" y="96"/>
      <point x="385" y="75"/>
      <point x="385" y="37" type="curve" smooth="yes"/>
    </contour>
    <contour>
      <point x="232" y="221" type="curve"/>
      <point x="225" y="278"/>
      <point x="206" y="309"/>
      <point x="177" y="345" type="curve" smooth="yes"/>
      <point x="143" y="387"/>
      <point x="127" y="429"/>
      <point x="127" y="494" type="curve" smooth="yes"/>
      <point x="127" y="595"/>
      <point x="163" y="651"/>
      <point x="237" y="651" type="curve" smooth="yes"/>
      <point x="311" y="651"/>
      <point x="348" y="595"/>
      <point x="348" y="484" type="curve" smooth="yes"/>
      <point x="348" y="391"/>
      <point x="316" y="306"/>
    </contour>
    <contour>
      <point x="143" y="170" type="curve"/>
      <point x="271" y="170" type="line"/>
      <point x="390" y="277"/>
      <point x="430" y="370"/>
      <point x="430" y="488" type="curve" smooth="yes"/>
      <point x="430" y="645"/>
      <point x="358" y="724"/>
      <point x="237" y="724" type="curve" smooth="yes"/>
      <point x="117" y="724"/>
      <point x="43" y="639"/>
      <point x="43" y="497" type="curve" smooth="yes"/>
      <point x="43" y="406"/>
      <point x="64" y="357"/>
      <point x="121" y="299" type="curve" smooth="yes"/>
      <point x="148" y="272"/>
      <point x="177" y="235"/>
      <point x="177" y="181" type="curve"/>
      <point x="170" y="176"/>
      <point x="155" y="172"/>
    </contour>
  </outline>
</glyph>
<glyph name="uni054D" format="2">
  <advance width="527"/>
  <unicode hex="054D"/>
  <note>
uni054D
</note>
  <outline>
    <contour>
      <point x="462" y="714" type="line"/>
      <point x="378" y="714" type="line"/>
      <point x="378" y="231" type="line" smooth="yes"/>
      <point x="378" y="104"/>
      <point x="334" y="64"/>
      <point x="264" y="64" type="curve" smooth="yes"/>
      <point x="191" y="64"/>
      <point x="149" y="110"/>
      <point x="149" y="231" type="curve" smooth="yes"/>
      <point x="149" y="714" type="line"/>
      <point x="66" y="714" type="line"/>
      <point x="66" y="225" type="line" smooth="yes"/>
      <point x="66" y="64"/>
      <point x="136" y="-10"/>
      <point x="263" y="-10" type="curve" smooth="yes"/>
      <point x="382" y="-10"/>
      <point x="462" y="56"/>
      <point x="462" y="227" type="curve" smooth="yes"/>
    </contour>
  </outline>
</glyph>
<glyph name="uni054E" format="2">
  <advance width="568"/>
  <unicode hex="054E"/>
  <note>
uni054E
</note>
  <outline>
    <contour>
      <point x="425" y="0" type="line"/>
      <point x="425" y="714" type="line"/>
      <point x="342" y="714" type="line"/>
      <point x="342" y="250" type="line"/>
      <point x="347" y="250" type="line"/>
      <point x="344" y="221"/>
      <point x="342" y="188"/>
      <point x="342" y="151" type="curve" smooth="yes"/>
      <point x="342" y="0" type="line"/>
    </contour>
    <contour>
      <point x="353" y="430" type="line"/>
      <point x="342" y="430" type="line"/>
      <point x="342" y="369" type="line" smooth="yes"/>
      <point x="342" y="294"/>
      <point x="298" y="232"/>
      <point x="230" y="232" type="curve" smooth="yes"/>
      <point x="145" y="232"/>
      <point x="124" y="273"/>
      <point x="124" y="360" type="curve" smooth="yes"/>
      <point x="124" y="482" type="line"/>
      <point x="41" y="482" type="line"/>
      <point x="41" y="332" type="line" smooth="yes"/>
      <point x="41" y="215"/>
      <point x="91" y="158"/>
      <point x="205" y="158" type="curve" smooth="yes"/>
      <point x="261" y="158"/>
      <point x="336" y="191"/>
      <point x="353" y="286" type="curve" smooth="yes"/>
    </contour>
    <contour>
      <point x="415" y="74" type="line"/>
      <point x="415" y="0" type="line"/>
      <point x="555" y="0" type="line"/>
      <point x="555" y="74" type="line"/>
    </contour>
  </outline>
</glyph>
<glyph name="uni054F" format="2">
  <advance width="429"/>
  <unicode hex="054F"/>
  <note>
uni054F
</note>
  <outline>
    <contour>
      <point x="393" y="198" type="curve" smooth="yes"/>
      <point x="393" y="283"/>
      <point x="352" y="333"/>
      <point x="248" y="394" type="curve" smooth="yes"/>
      <point x="158" y="447"/>
      <point x="126" y="475"/>
      <point x="126" y="537" type="curve" smooth="yes"/>
      <point x="126" y="604"/>
      <point x="163" y="650"/>
      <point x="237" y="650" type="curve" smooth="yes"/>
      <point x="271" y="650"/>
      <point x="316" y="641"/>
      <point x="363" y="616" type="curve"/>
      <point x="388" y="687" type="line"/>
      <point x="345" y="709"/>
      <point x="291" y="724"/>
      <point x="239" y="724" type="curve" smooth="yes"/>
      <point x="116" y="724"/>
      <point x="41" y="655"/>
      <point x="41" y="533" type="curve" smooth="yes"/>
      <point x="41" y="431"/>
      <point x="91" y="388"/>
      <point x="189" y="332" type="curve" smooth="yes"/>
      <point x="290" y="274"/>
      <point x="312" y="239"/>
      <point x="312" y="191" type="curve" smooth="yes"/>
      <point x="312" y="117"/>
      <point x="275" y="64"/>
      <point x="191" y="64" type="curve" smooth="yes"/>
      <point x="143" y="64"/>
      <point x="83" y="80"/>
      <point x="36" y="105" type="curve"/>
      <point x="36" y="23" type="line"/>
      <point x="84" y="-1"/>
      <point x="140" y="-10"/>
      <point x="190" y="-10" type="curve" smooth="yes"/>
      <point x="317" y="-10"/>
      <point x="393" y="69"/>
    </contour>
  </outline>
</glyph>
<glyph name="uni0550" format="2">
  <advance width="503"/>
  <unicode hex="0550"/>
  <note>
uni0550
</note>
  <outline>
    <contour>
      <point x="66" y="0" type="line"/>
      <point x="149" y="0" type="line"/>
      <point x="149" y="483" type="line" smooth="yes"/>
      <point x="149" y="610"/>
      <point x="194" y="650"/>
      <point x="264" y="650" type="curve" smooth="yes"/>
      <point x="341" y="650"/>
      <point x="378" y="602"/>
      <point x="378" y="468" type="curve"/>
      <point x="462" y="468" type="line"/>
      <point x="462" y="651"/>
      <point x="400" y="724"/>
      <point x="265" y="724" type="curve" smooth="yes"/>
      <point x="146" y="724"/>
      <point x="66" y="658"/>
      <point x="66" y="487" type="curve" smooth="yes"/>
    </contour>
  </outline>
</glyph>
<glyph name="uni0551" format="2">
  <advance width="455"/>
  <unicode hex="0551"/>
  <note>
uni0551
</note>
  <outline>
    <contour>
      <point x="240" y="408" type="line"/>
      <point x="143" y="448"/>
      <point x="117" y="493"/>
      <point x="117" y="555" type="curve" smooth="yes"/>
      <point x="117" y="612"/>
      <point x="153" y="650"/>
      <point x="218" y="650" type="curve" smooth="yes"/>
      <point x="276" y="650"/>
      <point x="315" y="614"/>
      <point x="315" y="552" type="curve" smooth="yes"/>
      <point x="315" y="483"/>
      <point x="276" y="444"/>
      <point x="223" y="426" type="curve" smooth="yes"/>
      <point x="42" y="364" type="line"/>
      <point x="66" y="301" type="line"/>
      <point x="213" y="347" type="line"/>
      <point x="300" y="311"/>
      <point x="334" y="259"/>
      <point x="334" y="190" type="curve" smooth="yes"/>
      <point x="334" y="118"/>
      <point x="284" y="64"/>
      <point x="199" y="64" type="curve" smooth="yes"/>
      <point x="143" y="64"/>
      <point x="81" y="82"/>
      <point x="41" y="111" type="curve"/>
      <point x="41" y="30" type="line"/>
      <point x="84" y="6"/>
      <point x="130" y="-10"/>
      <point x="203" y="-10" type="curve" smooth="yes"/>
      <point x="338" y="-10"/>
      <point x="418" y="71"/>
      <point x="418" y="189" type="curve" smooth="yes"/>
      <point x="418" y="283"/>
      <point x="380" y="343"/>
      <point x="292" y="386" type="curve"/>
      <point x="292" y="388" type="line"/>
      <point x="349" y="415"/>
      <point x="395" y="469"/>
      <point x="395" y="562" type="curve" smooth="yes"/>
      <point x="395" y="663"/>
      <point x="326" y="724"/>
      <point x="219" y="724" type="curve" smooth="yes"/>
      <point x="111" y="724"/>
      <point x="37" y="658"/>
      <point x="37" y="566" type="curve" smooth="yes"/>
      <point x="37" y="473"/>
      <point x="72" y="410"/>
      <point x="177" y="364" type="curve"/>
    </contour>
  </outline>
</glyph>
<glyph name="uni0552" format="2">
  <advance width="444"/>
  <unicode hex="0552"/>
  <note>
uni0552
</note>
  <outline>
    <contour>
      <point x="70" y="-2" type="line"/>
      <point x="153" y="-2" type="line"/>
      <point x="153" y="463" type="line"/>
      <point x="177" y="463" type="line" smooth="yes"/>
      <point x="220" y="463"/>
      <point x="231" y="456"/>
      <point x="268" y="348" type="curve" smooth="yes"/>
      <point x="310" y="227"/>
      <point x="335" y="210"/>
      <point x="390" y="210" type="curve" smooth="yes"/>
      <point x="430" y="210" type="line"/>
      <point x="430" y="284" type="line"/>
      <point x="411" y="284" type="line" smooth="yes"/>
      <point x="379" y="284"/>
      <point x="366" y="295"/>
      <point x="331" y="395" type="curve" smooth="yes"/>
      <point x="287" y="520"/>
      <point x="268" y="537"/>
      <point x="189" y="537" type="curve" smooth="yes"/>
      <point x="153" y="537" type="line"/>
      <point x="153" y="716" type="line"/>
      <point x="70" y="716" type="line"/>
    </contour>
  </outline>
</glyph>
<glyph name="uni0553" format="2">
  <advance width="604"/>
  <unicode hex="0553"/>
  <note>
uni0553
</note>
  <outline>
    <contour>
      <point x="342" y="714" type="line"/>
      <point x="262" y="714" type="line"/>
      <point x="262" y="637" type="line"/>
      <point x="123" y="635"/>
      <point x="40" y="532"/>
      <point x="40" y="372" type="curve" smooth="yes"/>
      <point x="40" y="199"/>
      <point x="132" y="99"/>
      <point x="262" y="99" type="curve"/>
      <point x="262" y="0" type="line"/>
      <point x="342" y="0" type="line"/>
      <point x="342" y="99" type="line"/>
      <point x="476" y="102"/>
      <point x="563" y="199"/>
      <point x="563" y="370" type="curve" smooth="yes"/>
      <point x="563" y="538"/>
      <point x="475" y="635"/>
      <point x="342" y="637" type="curve"/>
    </contour>
    <contour>
      <point x="262" y="563" type="curve"/>
      <point x="262" y="173" type="line"/>
      <point x="189" y="173"/>
      <point x="123" y="235"/>
      <point x="123" y="372" type="curve" smooth="yes"/>
      <point x="123" y="500"/>
      <point x="183" y="562"/>
    </contour>
    <contour>
      <point x="342" y="563" type="line"/>
      <point x="422" y="562"/>
      <point x="481" y="503"/>
      <point x="481" y="372" type="curve" smooth="yes"/>
      <point x="481" y="236"/>
      <point x="422" y="176"/>
      <point x="342" y="173" type="curve"/>
    </contour>
  </outline>
</glyph>
<glyph name="uni0554" format="2">
  <advance width="481"/>
  <unicode hex="0554"/>
  <note>
uni0554
</note>
  <outline>
    <contour>
      <point x="80" y="0" type="line"/>
      <point x="163" y="0" type="line"/>
      <point x="163" y="331" type="line"/>
      <point x="256" y="331" type="line" smooth="yes"/>
      <point x="374" y="331"/>
      <point x="447" y="403"/>
      <point x="447" y="530" type="curve" smooth="yes"/>
      <point x="447" y="659"/>
      <point x="378" y="724"/>
      <point x="264" y="724" type="curve" smooth="yes"/>
      <point x="148" y="724"/>
      <point x="80" y="650"/>
      <point x="80" y="406" type="curve" smooth="yes"/>
    </contour>
    <contour>
      <point x="163" y="405" type="line"/>
      <point x="163" y="587"/>
      <point x="190" y="650"/>
      <point x="263" y="650" type="curve" smooth="yes"/>
      <point x="328" y="650"/>
      <point x="363" y="612"/>
      <point x="363" y="530" type="curve" smooth="yes"/>
      <point x="363" y="445"/>
      <point x="316" y="405"/>
      <point x="244" y="405" type="curve" smooth="yes"/>
    </contour>
    <contour>
      <point x="13" y="257" type="line"/>
      <point x="13" y="183" type="line"/>
      <point x="393" y="183" type="line"/>
      <point x="393" y="257" type="line"/>
    </contour>
  </outline>
</glyph>
<glyph name="uni0555" format="2">
  <advance width="555"/>
  <unicode hex="0555"/>
  <note>
uni0555
</note>
  <anchor x="277" y="714" name="top"/>
  <outline>
    <contour>
      <point x="507" y="358" type="curve" smooth="yes"/>
      <point x="507" y="582"/>
      <point x="438" y="724"/>
      <point x="279" y="724" type="curve" smooth="yes"/>
      <point x="129" y="724"/>
      <point x="48" y="600"/>
      <point x="48" y="358" type="curve" smooth="yes"/>
      <point x="48" y="151"/>
      <point x="112" y="-10"/>
      <point x="279" y="-10" type="curve" smooth="yes"/>
      <point x="445" y="-10"/>
      <point x="507" y="146"/>
    </contour>
    <contour>
      <point x="134" y="358" type="curve" smooth="yes"/>
      <point x="134" y="546"/>
      <point x="181" y="650"/>
      <point x="278" y="650" type="curve" smooth="yes"/>
      <point x="374" y="650"/>
      <point x="420" y="550"/>
      <point x="420" y="358" type="curve" smooth="yes"/>
      <point x="420" y="164"/>
      <point x="374" y="64"/>
      <point x="278" y="64" type="curve" smooth="yes"/>
      <point x="185" y="64"/>
      <point x="134" y="169"/>
    </contour>
  </outline>
</glyph>
<glyph name="uni0556" format="2">
  <advance width="536"/>
  <unicode hex="0556"/>
  <note>
uni0556
</note>
  <outline>
    <contour>
      <point x="263" y="-10" type="curve" smooth="yes"/>
      <point x="428" y="-10"/>
      <point x="502" y="64"/>
      <point x="502" y="206" type="curve" smooth="yes"/>
      <point x="502" y="327"/>
      <point x="453" y="391"/>
      <point x="308" y="419" type="curve"/>
      <point x="308" y="714" type="line"/>
      <point x="212" y="714" type="line" smooth="yes"/>
      <point x="109" y="714"/>
      <point x="45" y="647"/>
      <point x="45" y="542" type="curve" smooth="yes"/>
      <point x="45" y="431"/>
      <point x="101" y="375"/>
      <point x="226" y="353" type="curve"/>
      <point x="226" y="64" type="line"/>
      <point x="160" y="67"/>
      <point x="92" y="91"/>
      <point x="33" y="124" type="curve"/>
      <point x="33" y="38" type="line"/>
      <point x="90" y="9"/>
      <point x="167" y="-10"/>
    </contour>
    <contour>
      <point x="308" y="64" type="curve"/>
      <point x="308" y="343" type="line"/>
      <point x="387" y="327"/>
      <point x="418" y="288"/>
      <point x="418" y="205" type="curve" smooth="yes"/>
      <point x="418" y="117"/>
      <point x="383" y="66"/>
    </contour>
    <contour>
      <point x="227" y="429" type="line"/>
      <point x="158" y="442"/>
      <point x="129" y="477"/>
      <point x="129" y="544" type="curve" smooth="yes"/>
      <point x="129" y="601"/>
      <point x="153" y="640"/>
      <point x="205" y="640" type="curve" smooth="yes"/>
      <point x="227" y="640" type="line"/>
    </contour>
  </outline>
</glyph>
<glyph name="uni0559" format="2">
  <advance width="156"/>
  <unicode hex="0559"/>
  <note>
uni0559
</note>
  <outline>
    <contour>
      <point x="125" y="438" type="curve"/>
      <point x="125" y="516" type="line"/>
      <point x="97" y="516"/>
      <point x="83" y="533"/>
      <point x="83" y="583" type="curve" smooth="yes"/>
      <point x="83" y="634"/>
      <point x="101" y="680"/>
      <point x="136" y="723" type="curve"/>
      <point x="103" y="764" type="line"/>
      <point x="43" y="715"/>
      <point x="10" y="647"/>
      <point x="10" y="572" type="curve" smooth="yes"/>
      <point x="10" y="482"/>
      <point x="54" y="438"/>
    </contour>
  </outline>
</glyph>
<glyph name="uni055A" format="2">
  <advance width="156"/>
  <unicode hex="055A"/>
  <note>
uni055A
</note>
  <outline>
    <contour>
      <point x="31" y="762" type="curve"/>
      <point x="31" y="684" type="line"/>
      <point x="58" y="684"/>
      <point x="73" y="667"/>
      <point x="73" y="616" type="curve" smooth="yes"/>
      <point x="73" y="566"/>
      <point x="55" y="520"/>
      <point x="20" y="477" type="curve"/>
      <point x="53" y="436" type="line"/>
      <point x="113" y="484"/>
      <point x="146" y="552"/>
      <point x="146" y="628" type="curve" smooth="yes"/>
      <point x="146" y="718"/>
      <point x="101" y="762"/>
    </contour>
  </outline>
</glyph>
<glyph name="uni055B" format="2">
  <advance width="196"/>
  <unicode hex="055B"/>
  <note>
uni055B
</note>
  <outline>
    <contour>
      <point x="146" y="814" type="line"/>
      <point x="71" y="814" type="line"/>
      <point x="66" y="740"/>
      <point x="54" y="658"/>
      <point x="37" y="587" type="curve"/>
      <point x="103" y="587" type="line"/>
      <point x="119" y="637"/>
      <point x="144" y="736"/>
      <point x="152" y="804" type="curve"/>
    </contour>
  </outline>
</glyph>
<glyph name="uni055C" format="2">
  <advance width="193"/>
  <unicode hex="055C"/>
  <note>
uni055C
</note>
  <outline>
    <contour>
      <point x="16" y="601" type="curve"/>
      <point x="88" y="601" type="line"/>
      <point x="88" y="615" type="line" smooth="yes"/>
      <point x="88" y="642"/>
      <point x="94" y="661"/>
      <point x="125" y="686" type="curve" smooth="yes"/>
      <point x="170" y="722"/>
      <point x="177" y="741"/>
      <point x="177" y="817" type="curve"/>
      <point x="106" y="817" type="line"/>
      <point x="106" y="801" type="line" smooth="yes"/>
      <point x="106" y="765"/>
      <point x="99" y="750"/>
      <point x="64" y="721" type="curve" smooth="yes"/>
      <point x="21" y="685"/>
      <point x="16" y="657"/>
    </contour>
  </outline>
</glyph>
<glyph name="uni055D" format="2">
  <advance width="196"/>
  <unicode hex="055D"/>
  <note>
uni055D
</note>
  <outline>
    <contour>
      <point x="50" y="814" type="line"/>
      <point x="44" y="804" type="line"/>
      <point x="51" y="736"/>
      <point x="76" y="637"/>
      <point x="93" y="587" type="curve"/>
      <point x="159" y="587" type="line"/>
      <point x="142" y="658"/>
      <point x="129" y="740"/>
      <point x="125" y="814" type="curve"/>
    </contour>
  </outline>
</glyph>
<glyph name="uni055E" format="2">
  <advance width="312"/>
  <unicode hex="055E"/>
  <note>
uni055E
</note>
  <outline>
    <contour>
      <point x="40" y="633" type="curve"/>
      <point x="107" y="633" type="line"/>
      <point x="109" y="720"/>
      <point x="134" y="763"/>
      <point x="174" y="763" type="curve" smooth="yes"/>
      <point x="198" y="763"/>
      <point x="211" y="749"/>
      <point x="211" y="725" type="curve" smooth="yes"/>
      <point x="211" y="703"/>
      <point x="200" y="692"/>
      <point x="168" y="691" type="curve"/>
      <point x="168" y="632" type="line"/>
      <point x="238" y="633"/>
      <point x="276" y="666"/>
      <point x="276" y="730" type="curve" smooth="yes"/>
      <point x="276" y="790"/>
      <point x="238" y="827"/>
      <point x="181" y="827" type="curve" smooth="yes"/>
      <point x="96" y="827"/>
      <point x="42" y="761"/>
    </contour>
  </outline>
</glyph>
<glyph name="uni055F" format="2">
  <advance width="289"/>
  <unicode hex="055F"/>
  <note>
uni055F
</note>
  <outline>
    <contour>
      <point x="130" y="606" type="curve" smooth="yes"/>
      <point x="275" y="606" type="line"/>
      <point x="275" y="670" type="line"/>
      <point x="136" y="670" type="line" smooth="yes"/>
      <point x="110" y="670"/>
      <point x="98" y="687"/>
      <point x="98" y="719" type="curve" smooth="yes"/>
      <point x="98" y="749"/>
      <point x="112" y="765"/>
      <point x="134" y="765" type="curve" smooth="yes"/>
      <point x="143" y="765"/>
      <point x="157" y="761"/>
      <point x="171" y="754" type="curve"/>
      <point x="191" y="814" type="line"/>
      <point x="169" y="824"/>
      <point x="147" y="829"/>
      <point x="128" y="829" type="curve" smooth="yes"/>
      <point x="72" y="829"/>
      <point x="31" y="783"/>
      <point x="31" y="717" type="curve" smooth="yes"/>
      <point x="31" y="645"/>
      <point x="65" y="606"/>
    </contour>
  </outline>
</glyph>
<glyph name="uni0560" format="2">
  <advance width="680"/>
  <unicode hex="0560"/>
  <note>
uni0561
</note>
  <outline>
    <contour>
      <point x="494" y="502" type="curve" smooth="yes"/>
      <point x="431" y="502"/>
      <point x="397" y="464"/>
      <point x="375" y="409" type="curve"/>
      <point x="368" y="409" type="line"/>
      <point x="357" y="459"/>
      <point x="327" y="502"/>
      <point x="260" y="502" type="curve" smooth="yes"/>
      <point x="190" y="502"/>
      <point x="156" y="453"/>
      <point x="138" y="405" type="curve"/>
      <point x="134" y="405" type="line"/>
      <point x="125" y="492" type="line"/>
      <point x="63" y="492" type="line"/>
      <point x="63" y="0" type="line"/>
      <point x="143" y="0" type="line"/>
      <point x="143" y="256" type="line" smooth="yes"/>
      <point x="143" y="356"/>
      <point x="169" y="430"/>
      <point x="234" y="430" type="curve" smooth="yes"/>
      <point x="274" y="430"/>
      <point x="301" y="395"/>
      <point x="301" y="291" type="curve" smooth="yes"/>
      <point x="301" y="0" type="line"/>
      <point x="381" y="0" type="line"/>
      <point x="381" y="265" type="line" smooth="yes"/>
      <point x="381" y="370"/>
      <point x="413" y="430"/>
      <point x="470" y="430" type="curve" smooth="yes"/>
      <point x="511" y="430"/>
      <point x="539" y="392"/>
      <point x="539" y="301" type="curve" smooth="yes"/>
      <point x="539" y="0" type="line"/>
      <point x="619" y="0" type="line"/>
      <point x="619" y="323" type="line" smooth="yes"/>
      <point x="619" y="446"/>
      <point x="574" y="502"/>
    </contour>
  </outline>
</glyph>
<glyph name="uni0561" format="2">
  <advance width="680"/>
  <unicode hex="0561"/>
  <note>
uni0561
</note>
  <anchor x="340" y="492" name="top"/>
  <outline>
    <contour>
      <point x="186" y="-10" type="curve" smooth="yes"/>
      <point x="249" y="-10"/>
      <point x="283" y="28"/>
      <point x="305" y="83" type="curve"/>
      <point x="312" y="83" type="line"/>
      <point x="323" y="33"/>
      <point x="353" y="-10"/>
      <point x="420" y="-10" type="curve" smooth="yes"/>
      <point x="490" y="-10"/>
      <point x="524" y="39"/>
      <point x="542" y="87" type="curve"/>
      <point x="546" y="87" type="line"/>
      <point x="555" y="0" type="line"/>
      <point x="617" y="0" type="line"/>
      <point x="617" y="492" type="line"/>
      <point x="537" y="492" type="line"/>
      <point x="537" y="236" type="line" smooth="yes"/>
      <point x="537" y="136"/>
      <point x="511" y="62"/>
      <point x="446" y="62" type="curve" smooth="yes"/>
      <point x="406" y="62"/>
      <point x="379" y="97"/>
      <point x="379" y="201" type="curve" smooth="yes"/>
      <point x="379" y="492" type="line"/>
      <point x="299" y="492" type="line"/>
      <point x="299" y="227" type="line" smooth="yes"/>
      <point x="299" y="122"/>
      <point x="267" y="62"/>
      <point x="210" y="62" type="curve" smooth="yes"/>
      <point x="169" y="62"/>
      <point x="141" y="100"/>
      <point x="141" y="191" type="curve" smooth="yes"/>
      <point x="141" y="492" type="line"/>
      <point x="61" y="492" type="line"/>
      <point x="61" y="169" type="line" smooth="yes"/>
      <point x="61" y="46"/>
      <point x="106" y="-10"/>
    </contour>
  </outline>
</glyph>
<glyph name="uni0562" format="2">
  <advance width="433"/>
  <unicode hex="0562"/>
  <note>
uni0562
</note>
  <outline>
    <contour>
      <point x="63" y="-235" type="line"/>
      <point x="143" y="-235" type="line"/>
      <point x="143" y="240" type="line" smooth="yes"/>
      <point x="143" y="361"/>
      <point x="173" y="430"/>
      <point x="228" y="430" type="curve" smooth="yes"/>
      <point x="272" y="430"/>
      <point x="293" y="398"/>
      <point x="293" y="314" type="curve" smooth="yes"/>
      <point x="293" y="188" type="line"/>
      <point x="373" y="188" type="line"/>
      <point x="373" y="330" type="line" smooth="yes"/>
      <point x="373" y="456"/>
      <point x="327" y="502"/>
      <point x="249" y="502" type="curve" smooth="yes"/>
      <point x="195" y="502"/>
      <point x="156" y="475"/>
      <point x="139" y="421" type="curve"/>
      <point x="135" y="421" type="line"/>
      <point x="127" y="492" type="line"/>
      <point x="63" y="492" type="line"/>
    </contour>
    <contour>
      <point x="112" y="68" type="line"/>
      <point x="112" y="-2" type="line"/>
      <point x="378" y="-2" type="line"/>
      <point x="378" y="68" type="line"/>
    </contour>
  </outline>
</glyph>
<glyph name="uni0564" format="2">
  <advance width="479"/>
  <unicode hex="0564"/>
  <note>
uni0564
</note>
  <outline>
    <contour>
      <point x="293" y="-235" type="line"/>
      <point x="373" y="-235" type="line"/>
      <point x="373" y="0" type="line"/>
      <point x="475" y="0" type="line"/>
      <point x="475" y="70" type="line"/>
      <point x="373" y="70" type="line"/>
      <point x="373" y="330" type="line" smooth="yes"/>
      <point x="373" y="456"/>
      <point x="327" y="502"/>
      <point x="249" y="502" type="curve" smooth="yes"/>
      <point x="195" y="502"/>
      <point x="156" y="475"/>
      <point x="139" y="421" type="curve"/>
      <point x="135" y="421" type="line"/>
      <point x="127" y="492" type="line"/>
      <point x="63" y="492" type="line"/>
      <point x="63" y="0" type="line"/>
      <point x="143" y="0" type="line"/>
      <point x="143" y="240" type="line" smooth="yes"/>
      <point x="143" y="361"/>
      <point x="173" y="429"/>
      <point x="228" y="429" type="curve" smooth="yes"/>
      <point x="272" y="429"/>
      <point x="293" y="398"/>
      <point x="293" y="314" type="curve" smooth="yes"/>
    </contour>
  </outline>
</glyph>
<glyph name="uni0565" format="2">
  <advance width="433"/>
  <unicode hex="0565"/>
  <note>
uni0565
</note>
  <outline>
    <contour>
      <point x="371" y="316" type="line"/>
      <point x="291" y="316" type="line"/>
      <point x="291" y="252" type="line" smooth="yes"/>
      <point x="291" y="131"/>
      <point x="260" y="64"/>
      <point x="205" y="64" type="curve" smooth="yes"/>
      <point x="162" y="64"/>
      <point x="141" y="94"/>
      <point x="141" y="178" type="curve" smooth="yes"/>
      <point x="141" y="760" type="line"/>
      <point x="61" y="760" type="line"/>
      <point x="61" y="162" type="line" smooth="yes"/>
      <point x="61" y="37"/>
      <point x="106" y="-10"/>
      <point x="185" y="-10" type="curve" smooth="yes"/>
      <point x="239" y="-10"/>
      <point x="277" y="18"/>
      <point x="295" y="71" type="curve"/>
      <point x="298" y="71" type="line"/>
      <point x="307" y="0" type="line"/>
      <point x="371" y="0" type="line"/>
    </contour>
    <contour>
      <point x="110" y="492" type="line"/>
      <point x="110" y="422" type="line"/>
      <point x="375" y="422" type="line"/>
      <point x="375" y="492" type="line"/>
    </contour>
  </outline>
</glyph>
<glyph name="uni0566" format="2">
  <advance width="445"/>
  <unicode hex="0566"/>
  <note>
uni0566
</note>
  <outline>
    <contour>
      <point x="302" y="-235" type="line"/>
      <point x="482" y="-235" type="line"/>
      <point x="482" y="-165" type="line"/>
      <point x="382" y="-165" type="line"/>
      <point x="382" y="492" type="line"/>
      <point x="314" y="492" type="line"/>
      <point x="307" y="420" type="line"/>
      <point x="303" y="420" type="line"/>
      <point x="284" y="474"/>
      <point x="249" y="502"/>
      <point x="190" y="502" type="curve" smooth="yes"/>
      <point x="93" y="502"/>
      <point x="40" y="399"/>
      <point x="40" y="243" type="curve" smooth="yes"/>
      <point x="40" y="84"/>
      <point x="93" y="-10"/>
      <point x="186" y="-10" type="curve" smooth="yes"/>
      <point x="243" y="-10"/>
      <point x="280" y="21"/>
      <point x="302" y="78" type="curve"/>
      <point x="306" y="78" type="line"/>
      <point x="303" y="41"/>
      <point x="302" y="5"/>
      <point x="302" y="-12" type="curve" smooth="yes"/>
    </contour>
    <contour>
      <point x="210" y="59" type="curve" smooth="yes"/>
      <point x="157" y="59"/>
      <point x="121" y="117"/>
      <point x="121" y="242" type="curve" smooth="yes"/>
      <point x="121" y="361"/>
      <point x="153" y="432"/>
      <point x="212" y="432" type="curve" smooth="yes"/>
      <point x="270" y="432"/>
      <point x="302" y="379"/>
      <point x="302" y="281" type="curve" smooth="yes"/>
      <point x="302" y="222" type="line" smooth="yes"/>
      <point x="302" y="119"/>
      <point x="267" y="59"/>
    </contour>
  </outline>
</glyph>
<glyph name="uni0567" format="2">
  <advance width="332"/>
  <unicode hex="0567"/>
  <note>
uni0567
</note>
  <outline>
    <contour>
      <point x="63" y="0" type="line"/>
      <point x="143" y="0" type="line"/>
      <point x="143" y="760" type="line"/>
      <point x="63" y="760" type="line"/>
    </contour>
    <contour>
      <point x="112" y="492" type="line"/>
      <point x="112" y="422" type="line"/>
      <point x="309" y="422" type="line"/>
      <point x="309" y="492" type="line"/>
    </contour>
    <contour>
      <point x="63" y="0" type="line"/>
      <point x="171" y="0" type="line" smooth="yes"/>
      <point x="211" y="0"/>
      <point x="227" y="-13"/>
      <point x="227" y="-56" type="curve" smooth="yes"/>
      <point x="227" y="-90" type="line"/>
      <point x="306" y="-90" type="line"/>
      <point x="306" y="-52" type="line" smooth="yes"/>
      <point x="306" y="39"/>
      <point x="266" y="70"/>
      <point x="180" y="70" type="curve" smooth="yes"/>
      <point x="63" y="70" type="line"/>
    </contour>
  </outline>
</glyph>
<glyph name="uni0568" format="2">
  <advance width="433"/>
  <unicode hex="0568"/>
  <note>
uni0568
</note>
  <outline>
    <contour>
      <point x="63" y="-235" type="line"/>
      <point x="143" y="-235" type="line"/>
      <point x="143" y="240" type="line" smooth="yes"/>
      <point x="143" y="361"/>
      <point x="173" y="429"/>
      <point x="228" y="429" type="curve" smooth="yes"/>
      <point x="272" y="429"/>
      <point x="293" y="398"/>
      <point x="293" y="314" type="curve" smooth="yes"/>
      <point x="293" y="0" type="line"/>
      <point x="373" y="0" type="line"/>
      <point x="373" y="330" type="line" smooth="yes"/>
      <point x="373" y="456"/>
      <point x="327" y="502"/>
      <point x="249" y="502" type="curve" smooth="yes"/>
      <point x="195" y="502"/>
      <point x="156" y="475"/>
      <point x="139" y="421" type="curve"/>
      <point x="135" y="421" type="line"/>
      <point x="127" y="492" type="line"/>
      <point x="63" y="492" type="line"/>
    </contour>
    <contour>
      <point x="112" y="-165" type="line"/>
      <point x="112" y="-235" type="line"/>
      <point x="378" y="-235" type="line"/>
      <point x="378" y="-165" type="line"/>
    </contour>
  </outline>
</glyph>
<glyph name="uni0569" format="2">
  <advance width="503"/>
  <unicode hex="0569"/>
  <note>
uni0569
</note>
  <outline>
    <contour>
      <point x="66" y="-235" type="line"/>
      <point x="146" y="-235" type="line"/>
      <point x="146" y="281" type="line" smooth="yes"/>
      <point x="146" y="379"/>
      <point x="185" y="434"/>
      <point x="258" y="434" type="curve"/>
      <point x="278" y="502" type="line"/>
      <point x="209" y="502"/>
      <point x="165" y="468"/>
      <point x="146" y="411" type="curve"/>
      <point x="141" y="411" type="line"/>
      <point x="134" y="492" type="line"/>
      <point x="66" y="492" type="line"/>
    </contour>
    <contour>
      <point x="490" y="179" type="curve"/>
      <point x="508" y="243" type="line"/>
      <point x="461" y="269"/>
      <point x="386" y="287"/>
      <point x="321" y="287" type="curve" smooth="yes"/>
      <point x="235" y="287"/>
      <point x="190" y="232"/>
      <point x="190" y="134" type="curve" smooth="yes"/>
      <point x="190" y="45"/>
      <point x="233" y="-10"/>
      <point x="306" y="-10" type="curve" smooth="yes"/>
      <point x="400" y="-10"/>
      <point x="450" y="59"/>
      <point x="450" y="240" type="curve" smooth="yes"/>
      <point x="450" y="427"/>
      <point x="395" y="502"/>
      <point x="278" y="502" type="curve"/>
      <point x="258" y="434" type="line"/>
      <point x="346" y="434"/>
      <point x="366" y="373"/>
      <point x="366" y="240" type="curve" smooth="yes"/>
      <point x="366" y="102"/>
      <point x="349" y="56"/>
      <point x="306" y="56" type="curve" smooth="yes"/>
      <point x="274" y="56"/>
      <point x="259" y="82"/>
      <point x="259" y="136" type="curve" smooth="yes"/>
      <point x="259" y="189"/>
      <point x="279" y="221"/>
      <point x="321" y="221" type="curve" smooth="yes"/>
      <point x="380" y="221"/>
      <point x="448" y="205"/>
    </contour>
  </outline>
</glyph>
<glyph name="uni056A" format="2">
  <advance width="449"/>
  <unicode hex="056A"/>
  <note>
uni056A
</note>
  <outline>
    <contour>
      <point x="220" y="432" type="curve" smooth="yes"/>
      <point x="285" y="432"/>
      <point x="357" y="412"/>
      <point x="420" y="374" type="curve"/>
      <point x="445" y="439" type="line"/>
      <point x="364" y="484"/>
      <point x="294" y="502"/>
      <point x="222" y="502" type="curve" smooth="yes"/>
      <point x="102" y="502"/>
      <point x="40" y="408"/>
      <point x="40" y="242" type="curve" smooth="yes"/>
      <point x="40" y="72"/>
      <point x="97" y="-10"/>
      <point x="204" y="-10" type="curve" smooth="yes"/>
      <point x="311" y="-10"/>
      <point x="362" y="69"/>
      <point x="362" y="244" type="curve" smooth="yes"/>
      <point x="362" y="760" type="line"/>
      <point x="282" y="760" type="line"/>
      <point x="282" y="247" type="line" smooth="yes"/>
      <point x="282" y="111"/>
      <point x="258" y="60"/>
      <point x="204" y="60" type="curve" smooth="yes"/>
      <point x="149" y="60"/>
      <point x="123" y="117"/>
      <point x="123" y="242" type="curve" smooth="yes"/>
      <point x="123" y="363"/>
      <point x="155" y="432"/>
    </contour>
  </outline>
</glyph>
<glyph name="uni056B" format="2">
  <advance width="433"/>
  <unicode hex="056B"/>
  <note>
uni056B
</note>
  <outline>
    <contour>
      <point x="146" y="760" type="line"/>
      <point x="63" y="760" type="line"/>
      <point x="63" y="-235" type="line"/>
      <point x="143" y="-235" type="line"/>
      <point x="143" y="240" type="line" smooth="yes"/>
      <point x="143" y="361"/>
      <point x="173" y="430"/>
      <point x="228" y="430" type="curve" smooth="yes"/>
      <point x="272" y="430"/>
      <point x="293" y="398"/>
      <point x="293" y="314" type="curve" smooth="yes"/>
      <point x="293" y="0" type="line"/>
      <point x="373" y="0" type="line"/>
      <point x="373" y="330" type="line" smooth="yes"/>
      <point x="373" y="456"/>
      <point x="327" y="502"/>
      <point x="255" y="502" type="curve" smooth="yes"/>
      <point x="199" y="502"/>
      <point x="164" y="476"/>
      <point x="147" y="425" type="curve"/>
      <point x="143" y="425" type="line"/>
      <point x="145" y="452"/>
      <point x="146" y="480"/>
      <point x="146" y="507" type="curve" smooth="yes"/>
    </contour>
  </outline>
</glyph>
<glyph name="uni056C" format="2">
  <advance width="207"/>
  <unicode hex="056C"/>
  <note>
uni056C
</note>
  <outline>
    <contour>
      <point x="63" y="-235" type="line"/>
      <point x="228" y="-235" type="line"/>
      <point x="228" y="-165" type="line"/>
      <point x="143" y="-165" type="line"/>
      <point x="143" y="492" type="line"/>
      <point x="63" y="492" type="line"/>
    </contour>
  </outline>
</glyph>
<glyph name="uni056D" format="2">
  <advance width="664"/>
  <unicode hex="056D"/>
  <note>
uni056D
</note>
  <outline>
    <contour>
      <point x="522" y="492" type="line"/>
      <point x="522" y="252" type="line" smooth="yes"/>
      <point x="522" y="131"/>
      <point x="492" y="62"/>
      <point x="437" y="62" type="curve" smooth="yes"/>
      <point x="394" y="62"/>
      <point x="373" y="94"/>
      <point x="373" y="178" type="curve" smooth="yes"/>
      <point x="373" y="330" type="line" smooth="yes"/>
      <point x="373" y="456"/>
      <point x="327" y="502"/>
      <point x="255" y="502" type="curve" smooth="yes"/>
      <point x="199" y="502"/>
      <point x="164" y="476"/>
      <point x="147" y="425" type="curve"/>
      <point x="143" y="425" type="line"/>
      <point x="145" y="452"/>
      <point x="146" y="480"/>
      <point x="146" y="507" type="curve" smooth="yes"/>
      <point x="146" y="760" type="line"/>
      <point x="63" y="760" type="line"/>
      <point x="63" y="-235" type="line"/>
      <point x="143" y="-235" type="line"/>
      <point x="143" y="240" type="line" smooth="yes"/>
      <point x="143" y="361"/>
      <point x="173" y="430"/>
      <point x="228" y="430" type="curve" smooth="yes"/>
      <point x="272" y="430"/>
      <point x="293" y="398"/>
      <point x="293" y="314" type="curve" smooth="yes"/>
      <point x="293" y="162" type="line" smooth="yes"/>
      <point x="293" y="37"/>
      <point x="338" y="-10"/>
      <point x="416" y="-10" type="curve" smooth="yes"/>
      <point x="471" y="-10"/>
      <point x="509" y="18"/>
      <point x="526" y="71" type="curve"/>
      <point x="530" y="71" type="line"/>
      <point x="539" y="0" type="line"/>
      <point x="602" y="0" type="line"/>
      <point x="602" y="492" type="line"/>
    </contour>
  </outline>
</glyph>
<glyph name="uni056E" format="2">
  <advance width="424"/>
  <unicode hex="056E"/>
  <note>
uni056E
</note>
  <outline>
    <contour>
      <point x="216" y="422" type="curve" smooth="yes"/>
      <point x="410" y="422" type="line"/>
      <point x="410" y="492" type="line"/>
      <point x="209" y="492" type="line" smooth="yes"/>
      <point x="102" y="492"/>
      <point x="40" y="405"/>
      <point x="40" y="242" type="curve" smooth="yes"/>
      <point x="40" y="72"/>
      <point x="97" y="-10"/>
      <point x="204" y="-10" type="curve" smooth="yes"/>
      <point x="311" y="-10"/>
      <point x="362" y="69"/>
      <point x="362" y="235" type="curve" smooth="yes"/>
      <point x="362" y="399"/>
      <point x="300" y="553"/>
      <point x="182" y="706" type="curve"/>
      <point x="124" y="664" type="line"/>
      <point x="228" y="526"/>
      <point x="282" y="398"/>
      <point x="282" y="239" type="curve" smooth="yes"/>
      <point x="282" y="113"/>
      <point x="258" y="62"/>
      <point x="204" y="62" type="curve" smooth="yes"/>
      <point x="149" y="62"/>
      <point x="123" y="119"/>
      <point x="123" y="242" type="curve" smooth="yes"/>
      <point x="123" y="361"/>
      <point x="146" y="422"/>
    </contour>
    <contour>
      <point x="125" y="664" type="line"/>
      <point x="169" y="611" type="line"/>
      <point x="290" y="715" type="line"/>
      <point x="246" y="768" type="line"/>
    </contour>
  </outline>
</glyph>
<glyph name="uni056F" format="2">
  <advance width="435"/>
  <unicode hex="056F"/>
  <note>
uni056F
</note>
  <outline>
    <contour>
      <point x="371" y="-235" type="line"/>
      <point x="371" y="492" type="line"/>
      <point x="291" y="492" type="line"/>
      <point x="291" y="252" type="line" smooth="yes"/>
      <point x="291" y="131"/>
      <point x="260" y="62"/>
      <point x="205" y="62" type="curve" smooth="yes"/>
      <point x="162" y="62"/>
      <point x="141" y="92"/>
      <point x="141" y="176" type="curve" smooth="yes"/>
      <point x="141" y="760" type="line"/>
      <point x="61" y="760" type="line"/>
      <point x="61" y="162" type="line" smooth="yes"/>
      <point x="61" y="37"/>
      <point x="106" y="-10"/>
      <point x="180" y="-10" type="curve" smooth="yes"/>
      <point x="237" y="-10"/>
      <point x="272" y="18"/>
      <point x="290" y="71" type="curve"/>
      <point x="293" y="71" type="line"/>
      <point x="292" y="45"/>
      <point x="291" y="19"/>
      <point x="291" y="-7" type="curve" smooth="yes"/>
      <point x="291" y="-235" type="line"/>
    </contour>
  </outline>
</glyph>
<glyph name="uni0570" format="2">
  <advance width="396"/>
  <unicode hex="0570"/>
  <note>
uni0570
</note>
  <outline>
    <contour>
      <point x="263" y="0" type="line"/>
      <point x="344" y="0" type="line"/>
      <point x="344" y="188" type="line" smooth="yes"/>
      <point x="344" y="314"/>
      <point x="306" y="360"/>
      <point x="228" y="360" type="curve" smooth="yes"/>
      <point x="177" y="360"/>
      <point x="148" y="335"/>
      <point x="127" y="295" type="curve"/>
      <point x="124" y="295" type="line"/>
      <point x="126" y="537"/>
      <point x="167" y="691"/>
      <point x="245" y="691" type="curve" smooth="yes"/>
      <point x="266" y="691"/>
      <point x="295" y="681"/>
      <point x="322" y="652" type="curve"/>
      <point x="368" y="707" type="line"/>
      <point x="335" y="742"/>
      <point x="291" y="763"/>
      <point x="245" y="763" type="curve" smooth="yes"/>
      <point x="102" y="763"/>
      <point x="45" y="571"/>
      <point x="45" y="252" type="curve" smooth="yes"/>
      <point x="45" y="203" type="line"/>
      <point x="122" y="192" type="line"/>
      <point x="135" y="253"/>
      <point x="161" y="288"/>
      <point x="199" y="288" type="curve" smooth="yes"/>
      <point x="243" y="288"/>
      <point x="263" y="258"/>
      <point x="263" y="174" type="curve" smooth="yes"/>
    </contour>
  </outline>
</glyph>
<glyph name="uni0571" format="2">
  <advance width="459"/>
  <unicode hex="0571"/>
  <note>
uni0571
</note>
  <outline>
    <contour>
      <point x="155" y="760" type="curve"/>
      <point x="79" y="760" type="line"/>
      <point x="79" y="656"/>
      <point x="98" y="630"/>
      <point x="201" y="611" type="curve" smooth="yes"/>
      <point x="282" y="596"/>
      <point x="296" y="586"/>
      <point x="296" y="568" type="curve" smooth="yes"/>
      <point x="296" y="554"/>
      <point x="281" y="527"/>
      <point x="198" y="449" type="curve" smooth="yes"/>
      <point x="84" y="341"/>
      <point x="32" y="267"/>
      <point x="32" y="165" type="curve" smooth="yes"/>
      <point x="32" y="47"/>
      <point x="96" y="-10"/>
      <point x="175" y="-10" type="curve" smooth="yes"/>
      <point x="235" y="-10"/>
      <point x="276" y="11"/>
      <point x="309" y="46" type="curve"/>
      <point x="314" y="46" type="line"/>
      <point x="315" y="111" type="line"/>
      <point x="274" y="74"/>
      <point x="233" y="59"/>
      <point x="202" y="59" type="curve" smooth="yes"/>
      <point x="151" y="59"/>
      <point x="112" y="90"/>
      <point x="112" y="167" type="curve" smooth="yes"/>
      <point x="112" y="246"/>
      <point x="157" y="309"/>
      <point x="248" y="396" type="curve" smooth="yes"/>
      <point x="359" y="503"/>
      <point x="387" y="538"/>
      <point x="387" y="589" type="curve" smooth="yes"/>
      <point x="387" y="641"/>
      <point x="353" y="661"/>
      <point x="256" y="677" type="curve" smooth="yes"/>
      <point x="167" y="692"/>
      <point x="155" y="704"/>
    </contour>
    <contour>
      <point x="239" y="472" type="line"/>
      <point x="322" y="0" type="line"/>
      <point x="399" y="19" type="line"/>
      <point x="317" y="491" type="line"/>
    </contour>
    <contour>
      <point x="321" y="0" type="line"/>
      <point x="446" y="0" type="line"/>
      <point x="446" y="70" type="line"/>
      <point x="358" y="70" type="line"/>
    </contour>
  </outline>
</glyph>
<glyph name="uni0573" format="2">
  <advance width="424"/>
  <unicode hex="0573"/>
  <note>
uni0573
</note>
  <outline>
    <contour>
      <point x="384" y="215" type="line" smooth="yes"/>
      <point x="384" y="414"/>
      <point x="247" y="488"/>
      <point x="16" y="508" type="curve"/>
      <point x="16" y="438" type="line"/>
      <point x="193" y="419"/>
      <point x="304" y="369"/>
      <point x="304" y="221" type="curve" smooth="yes"/>
      <point x="304" y="129"/>
      <point x="270" y="62"/>
      <point x="210" y="62" type="curve" smooth="yes"/>
      <point x="152" y="62"/>
      <point x="136" y="103"/>
      <point x="136" y="219" type="curve" smooth="yes"/>
      <point x="136" y="541"/>
      <point x="185" y="691"/>
      <point x="271" y="691" type="curve" smooth="yes"/>
      <point x="292" y="691"/>
      <point x="321" y="681"/>
      <point x="348" y="652" type="curve"/>
      <point x="394" y="707" type="line"/>
      <point x="361" y="742"/>
      <point x="317" y="763"/>
      <point x="271" y="763" type="curve" smooth="yes"/>
      <point x="135" y="763"/>
      <point x="56" y="590"/>
      <point x="56" y="219" type="curve" smooth="yes"/>
      <point x="56" y="53"/>
      <point x="89" y="-10"/>
      <point x="190" y="-10" type="curve" smooth="yes"/>
      <point x="244" y="-10"/>
      <point x="287" y="21"/>
      <point x="308" y="71" type="curve"/>
      <point x="312" y="71" type="line"/>
      <point x="321" y="0" type="line"/>
      <point x="384" y="0" type="line"/>
    </contour>
  </outline>
</glyph>
<glyph name="uni0574" format="2">
  <advance width="437"/>
  <unicode hex="0574"/>
  <note>
uni0574
</note>
  <outline>
    <contour>
      <point x="371" y="456" type="line" smooth="yes"/>
      <point x="371" y="501"/>
      <point x="362" y="533"/>
      <point x="338" y="567" type="curve" smooth="yes"/>
      <point x="315" y="600"/>
      <point x="306" y="620"/>
      <point x="306" y="644" type="curve" smooth="yes"/>
      <point x="306" y="677"/>
      <point x="315" y="694"/>
      <point x="341" y="694" type="curve" smooth="yes"/>
      <point x="366" y="694"/>
      <point x="376" y="678"/>
      <point x="376" y="641" type="curve"/>
      <point x="450" y="641" type="line"/>
      <point x="450" y="720"/>
      <point x="413" y="764"/>
      <point x="337" y="764" type="curve" smooth="yes"/>
      <point x="278" y="764"/>
      <point x="226" y="732"/>
      <point x="226" y="643" type="curve" smooth="yes"/>
      <point x="226" y="607"/>
      <point x="237" y="579"/>
      <point x="261" y="542" type="curve" smooth="yes"/>
      <point x="281" y="511"/>
      <point x="291" y="487"/>
      <point x="291" y="452" type="curve" smooth="yes"/>
      <point x="291" y="252" type="line" smooth="yes"/>
      <point x="291" y="131"/>
      <point x="260" y="62"/>
      <point x="205" y="62" type="curve" smooth="yes"/>
      <point x="162" y="62"/>
      <point x="141" y="92"/>
      <point x="141" y="176" type="curve" smooth="yes"/>
      <point x="141" y="492" type="line"/>
      <point x="61" y="492" type="line"/>
      <point x="61" y="162" type="line" smooth="yes"/>
      <point x="61" y="37"/>
      <point x="106" y="-10"/>
      <point x="185" y="-10" type="curve" smooth="yes"/>
      <point x="239" y="-10"/>
      <point x="277" y="18"/>
      <point x="295" y="71" type="curve"/>
      <point x="298" y="71" type="line"/>
      <point x="307" y="0" type="line"/>
      <point x="371" y="0" type="line"/>
    </contour>
  </outline>
</glyph>
<glyph name="uni0575" format="2">
  <advance width="208"/>
  <unicode hex="0575"/>
  <note>
uni0575
</note>
  <outline>
    <contour>
      <point x="63" y="145" type="line"/>
      <point x="143" y="145" type="line"/>
      <point x="143" y="492" type="line"/>
      <point x="63" y="492" type="line"/>
    </contour>
    <contour>
      <point x="63" y="145" type="line"/>
      <point x="63" y="84"/>
      <point x="67" y="54"/>
      <point x="76" y="14" type="curve" smooth="yes"/>
      <point x="85" y="-25"/>
      <point x="91" y="-62"/>
      <point x="91" y="-95" type="curve" smooth="yes"/>
      <point x="91" y="-141"/>
      <point x="73" y="-165"/>
      <point x="42" y="-165" type="curve" smooth="yes"/>
      <point x="31" y="-165" type="line"/>
      <point x="31" y="-235" type="line"/>
      <point x="56" y="-235" type="line" smooth="yes"/>
      <point x="130" y="-235"/>
      <point x="172" y="-183"/>
      <point x="172" y="-107" type="curve" smooth="yes"/>
      <point x="172" y="-59"/>
      <point x="165" y="-17"/>
      <point x="156" y="18" type="curve" smooth="yes"/>
      <point x="146" y="59"/>
      <point x="143" y="87"/>
      <point x="143" y="145" type="curve"/>
    </contour>
  </outline>
</glyph>
<glyph name="uni0576" format="2">
  <advance width="437"/>
  <unicode hex="0576"/>
  <note>
uni0576
</note>
  <outline>
    <contour>
      <point x="126" y="516" type="line"/>
      <point x="76" y="410"/>
      <point x="46" y="313"/>
      <point x="46" y="200" type="curve" smooth="yes"/>
      <point x="46" y="72"/>
      <point x="91" y="-10"/>
      <point x="178" y="-10" type="curve"/>
      <point x="240" y="-10"/>
      <point x="277" y="18"/>
      <point x="298" y="71" type="curve"/>
      <point x="302" y="71" type="line"/>
      <point x="311" y="0" type="line"/>
      <point x="374" y="0" type="line"/>
      <point x="374" y="492" type="line"/>
      <point x="294" y="492" type="line"/>
      <point x="294" y="252" type="line" smooth="yes"/>
      <point x="294" y="123"/>
      <point x="264" y="62"/>
      <point x="201" y="62" type="curve"/>
      <point x="151" y="62"/>
      <point x="126" y="126"/>
      <point x="126" y="202" type="curve" smooth="yes"/>
      <point x="126" y="322"/>
      <point x="156" y="429"/>
      <point x="196" y="529" type="curve"/>
      <point x="196" y="541" type="line"/>
    </contour>
    <contour>
      <point x="196" y="541" type="line"/>
      <point x="150" y="583" type="line" smooth="yes"/>
      <point x="127" y="604"/>
      <point x="119" y="618"/>
      <point x="119" y="635" type="curve" smooth="yes"/>
      <point x="119" y="651"/>
      <point x="127" y="671"/>
      <point x="138" y="692" type="curve" smooth="yes"/>
      <point x="163" y="742" type="line"/>
      <point x="97" y="769" type="line"/>
      <point x="64" y="698" type="line" smooth="yes"/>
      <point x="53" y="674"/>
      <point x="47" y="653"/>
      <point x="47" y="630" type="curve" smooth="yes"/>
      <point x="47" y="598"/>
      <point x="56" y="578"/>
      <point x="83" y="554" type="curve" smooth="yes"/>
      <point x="126" y="516" type="line"/>
    </contour>
  </outline>
</glyph>
<glyph name="uni0577" format="2">
  <advance width="332"/>
  <unicode hex="0577"/>
  <note>
uni0577
</note>
  <outline>
    <contour>
      <point x="293" y="-235" type="line"/>
      <point x="293" y="-165" type="line"/>
      <point x="125" y="-165" type="line" smooth="yes"/>
      <point x="104" y="-165"/>
      <point x="97" y="-158"/>
      <point x="97" y="-146" type="curve" smooth="yes"/>
      <point x="97" y="-137"/>
      <point x="104" y="-124"/>
      <point x="114" y="-106" type="curve" smooth="yes"/>
      <point x="188" y="25" type="line" smooth="yes"/>
      <point x="260" y="152"/>
      <point x="295" y="231"/>
      <point x="295" y="326" type="curve" smooth="yes"/>
      <point x="295" y="433"/>
      <point x="235" y="502"/>
      <point x="141" y="502" type="curve" smooth="yes"/>
      <point x="91" y="502"/>
      <point x="42" y="487"/>
      <point x="3" y="461" type="curve"/>
      <point x="30" y="399" type="line"/>
      <point x="63" y="421"/>
      <point x="96" y="432"/>
      <point x="130" y="432" type="curve" smooth="yes"/>
      <point x="181" y="432"/>
      <point x="214" y="393"/>
      <point x="214" y="321" type="curve" smooth="yes"/>
      <point x="214" y="247"/>
      <point x="188" y="183"/>
      <point x="119" y="56" type="curve" smooth="yes"/>
      <point x="46" y="-78" type="line" smooth="yes"/>
      <point x="19" y="-128"/>
      <point x="9" y="-147"/>
      <point x="9" y="-175" type="curve" smooth="yes"/>
      <point x="9" y="-213"/>
      <point x="35" y="-235"/>
      <point x="82" y="-235" type="curve" smooth="yes"/>
    </contour>
  </outline>
</glyph>
<glyph name="uni0579" format="2">
  <advance width="280"/>
  <unicode hex="0579"/>
  <note>
uni0579
</note>
  <outline>
    <contour>
      <point x="-15" y="-186" type="curve" smooth="yes"/>
      <point x="-15" y="-213"/>
      <point x="3" y="-235"/>
      <point x="58" y="-235" type="curve" smooth="yes"/>
      <point x="260" y="-235" type="line"/>
      <point x="260" y="-165" type="line"/>
      <point x="98" y="-165" type="line" smooth="yes"/>
      <point x="77" y="-165"/>
      <point x="70" y="-158"/>
      <point x="70" y="-146" type="curve" smooth="yes"/>
      <point x="70" y="-134"/>
      <point x="74" y="-120"/>
      <point x="81" y="-101" type="curve" smooth="yes"/>
      <point x="217" y="291" type="line"/>
      <point x="148" y="318" type="line"/>
      <point x="13" y="-74" type="line" smooth="yes"/>
      <point x="-9" y="-137"/>
      <point x="-15" y="-157"/>
    </contour>
    <contour>
      <point x="217" y="291" type="line"/>
      <point x="179" y="331" type="line" smooth="yes"/>
      <point x="158" y="354"/>
      <point x="148" y="367"/>
      <point x="148" y="385" type="curve" smooth="yes"/>
      <point x="148" y="405"/>
      <point x="156" y="425"/>
      <point x="189" y="492" type="curve"/>
      <point x="104" y="492" type="line"/>
      <point x="73" y="430"/>
      <point x="67" y="409"/>
      <point x="67" y="379" type="curve" smooth="yes"/>
      <point x="67" y="347"/>
      <point x="79" y="327"/>
      <point x="104" y="302" type="curve" smooth="yes"/>
      <point x="143" y="263" type="line"/>
    </contour>
  </outline>
</glyph>
<glyph name="uni057B" format="2">
  <advance width="360"/>
  <unicode hex="057B"/>
  <note>
uni057B
</note>
  <outline>
    <contour>
      <point x="152" y="-165" type="line" smooth="yes"/>
      <point x="131" y="-165"/>
      <point x="124" y="-158"/>
      <point x="124" y="-146" type="curve" smooth="yes"/>
      <point x="124" y="-137"/>
      <point x="131" y="-124"/>
      <point x="141" y="-106" type="curve" smooth="yes"/>
      <point x="214" y="25" type="line" smooth="yes"/>
      <point x="287" y="156"/>
      <point x="332" y="238"/>
      <point x="332" y="326" type="curve" smooth="yes"/>
      <point x="332" y="436"/>
      <point x="277" y="502"/>
      <point x="179" y="502" type="curve" smooth="yes"/>
      <point x="77" y="502"/>
      <point x="25" y="433"/>
      <point x="25" y="326" type="curve" smooth="yes"/>
      <point x="25" y="249"/>
      <point x="42" y="198"/>
      <point x="90" y="145" type="curve" smooth="yes"/>
      <point x="138" y="92"/>
      <point x="155" y="50"/>
      <point x="158" y="-19" type="curve"/>
      <point x="206" y="40" type="line"/>
      <point x="208" y="87"/>
      <point x="196" y="126"/>
      <point x="151" y="182" type="curve" smooth="yes"/>
      <point x="112" y="230"/>
      <point x="106" y="266"/>
      <point x="106" y="326" type="curve" smooth="yes"/>
      <point x="106" y="398"/>
      <point x="133" y="432"/>
      <point x="179" y="432" type="curve" smooth="yes"/>
      <point x="223" y="432"/>
      <point x="251" y="399"/>
      <point x="251" y="326" type="curve" smooth="yes"/>
      <point x="251" y="251"/>
      <point x="225" y="203"/>
      <point x="155" y="74" type="curve" smooth="yes"/>
      <point x="69" y="-85" type="line" smooth="yes"/>
      <point x="42" y="-135"/>
      <point x="36" y="-147"/>
      <point x="36" y="-175" type="curve" smooth="yes"/>
      <point x="36" y="-213"/>
      <point x="62" y="-235"/>
      <point x="109" y="-235" type="curve" smooth="yes"/>
      <point x="326" y="-235" type="line"/>
      <point x="326" y="-165" type="line"/>
    </contour>
  </outline>
</glyph>
<glyph name="uni057C" format="2">
  <advance width="436"/>
  <unicode hex="057C"/>
  <note>
uni057C
</note>
  <outline>
    <contour>
      <point x="333" y="70" type="line"/>
      <point x="366" y="150"/>
      <point x="385" y="228"/>
      <point x="385" y="313" type="curve" smooth="yes"/>
      <point x="385" y="433"/>
      <point x="337" y="502"/>
      <point x="248" y="502" type="curve" smooth="yes"/>
      <point x="193" y="502"/>
      <point x="156" y="475"/>
      <point x="139" y="421" type="curve"/>
      <point x="135" y="421" type="line"/>
      <point x="127" y="492" type="line"/>
      <point x="63" y="492" type="line"/>
      <point x="63" y="0" type="line"/>
      <point x="143" y="0" type="line"/>
      <point x="143" y="240" type="line" smooth="yes"/>
      <point x="143" y="361"/>
      <point x="174" y="430"/>
      <point x="230" y="430" type="curve" smooth="yes"/>
      <point x="279" y="430"/>
      <point x="305" y="381"/>
      <point x="305" y="296" type="curve" smooth="yes"/>
      <point x="305" y="223"/>
      <point x="287" y="134"/>
      <point x="254" y="49" type="curve"/>
      <point x="254" y="0" type="line"/>
      <point x="421" y="0" type="line"/>
      <point x="421" y="70" type="line"/>
    </contour>
  </outline>
</glyph>
<glyph name="uni057D" format="2">
  <advance width="433"/>
  <unicode hex="057D"/>
  <note>
uni057D
</note>
  <outline>
    <contour>
      <point x="371" y="492" type="line"/>
      <point x="291" y="492" type="line"/>
      <point x="291" y="252" type="line" smooth="yes"/>
      <point x="291" y="131"/>
      <point x="260" y="62"/>
      <point x="205" y="62" type="curve" smooth="yes"/>
      <point x="162" y="62"/>
      <point x="141" y="92"/>
      <point x="141" y="176" type="curve" smooth="yes"/>
      <point x="141" y="492" type="line"/>
      <point x="61" y="492" type="line"/>
      <point x="61" y="162" type="line" smooth="yes"/>
      <point x="61" y="37"/>
      <point x="106" y="-10"/>
      <point x="185" y="-10" type="curve" smooth="yes"/>
      <point x="239" y="-10"/>
      <point x="277" y="18"/>
      <point x="295" y="71" type="curve"/>
      <point x="298" y="71" type="line"/>
      <point x="307" y="0" type="line"/>
      <point x="371" y="0" type="line"/>
    </contour>
  </outline>
</glyph>
<glyph name="uni057F" format="2">
  <advance width="662"/>
  <unicode hex="057F"/>
  <note>
uni057F
</note>
  <outline>
    <contour>
      <point x="477" y="502" type="curve" smooth="yes"/>
      <point x="423" y="502"/>
      <point x="384" y="475"/>
      <point x="367" y="421" type="curve"/>
      <point x="363" y="421" type="line"/>
      <point x="355" y="492" type="line"/>
      <point x="291" y="492" type="line"/>
      <point x="291" y="252" type="line" smooth="yes"/>
      <point x="291" y="131"/>
      <point x="260" y="62"/>
      <point x="205" y="62" type="curve" smooth="yes"/>
      <point x="162" y="62"/>
      <point x="141" y="92"/>
      <point x="141" y="176" type="curve" smooth="yes"/>
      <point x="141" y="492" type="line"/>
      <point x="61" y="492" type="line"/>
      <point x="61" y="162" type="line" smooth="yes"/>
      <point x="61" y="37"/>
      <point x="106" y="-10"/>
      <point x="185" y="-10" type="curve" smooth="yes"/>
      <point x="239" y="-10"/>
      <point x="277" y="18"/>
      <point x="295" y="71" type="curve"/>
      <point x="298" y="71" type="line"/>
      <point x="307" y="0" type="line"/>
      <point x="371" y="0" type="line"/>
      <point x="371" y="240" type="line" smooth="yes"/>
      <point x="371" y="361"/>
      <point x="401" y="430"/>
      <point x="456" y="430" type="curve" smooth="yes"/>
      <point x="500" y="430"/>
      <point x="520" y="399"/>
      <point x="520" y="315" type="curve" smooth="yes"/>
      <point x="520" y="0" type="line"/>
      <point x="601" y="0" type="line"/>
      <point x="601" y="330" type="line" smooth="yes"/>
      <point x="601" y="456"/>
      <point x="555" y="502"/>
    </contour>
  </outline>
</glyph>
<glyph name="uni0580" format="2">
  <advance width="433"/>
  <unicode hex="0580"/>
  <note>
uni0580
</note>
  <outline>
    <contour>
      <point x="63" y="-235" type="line"/>
      <point x="143" y="-235" type="line"/>
      <point x="143" y="240" type="line" smooth="yes"/>
      <point x="143" y="361"/>
      <point x="173" y="430"/>
      <point x="228" y="430" type="curve" smooth="yes"/>
      <point x="272" y="430"/>
      <point x="293" y="399"/>
      <point x="293" y="315" type="curve" smooth="yes"/>
      <point x="293" y="0" type="line"/>
      <point x="373" y="0" type="line"/>
      <point x="373" y="330" type="line" smooth="yes"/>
      <point x="373" y="456"/>
      <point x="327" y="502"/>
      <point x="249" y="502" type="curve" smooth="yes"/>
      <point x="195" y="502"/>
      <point x="156" y="475"/>
      <point x="139" y="421" type="curve"/>
      <point x="135" y="421" type="line"/>
      <point x="127" y="492" type="line"/>
      <point x="63" y="492" type="line"/>
    </contour>
  </outline>
</glyph>
<glyph name="uni0581" format="2">
  <advance width="445"/>
  <unicode hex="0581"/>
  <note>
uni0581
</note>
  <outline>
    <contour>
      <point x="185" y="-245" type="curve" smooth="yes"/>
      <point x="322" y="-245"/>
      <point x="382" y="-163"/>
      <point x="382" y="-6" type="curve" smooth="yes"/>
      <point x="382" y="492" type="line"/>
      <point x="314" y="492" type="line"/>
      <point x="307" y="420" type="line"/>
      <point x="303" y="420" type="line"/>
      <point x="284" y="476"/>
      <point x="249" y="502"/>
      <point x="190" y="502" type="curve" smooth="yes"/>
      <point x="93" y="502"/>
      <point x="40" y="399"/>
      <point x="40" y="243" type="curve" smooth="yes"/>
      <point x="40" y="84"/>
      <point x="93" y="-10"/>
      <point x="186" y="-10" type="curve" smooth="yes"/>
      <point x="243" y="-10"/>
      <point x="280" y="19"/>
      <point x="302" y="78" type="curve"/>
      <point x="306" y="78" type="line"/>
      <point x="304" y="51"/>
      <point x="302" y="25"/>
      <point x="302" y="8" type="curve" smooth="yes"/>
      <point x="302" y="-31" type="line" smooth="yes"/>
      <point x="302" y="-130"/>
      <point x="257" y="-175"/>
      <point x="183" y="-175" type="curve" smooth="yes"/>
      <point x="139" y="-175"/>
      <point x="102" y="-163"/>
      <point x="59" y="-138" type="curve"/>
      <point x="59" y="-210" type="line"/>
      <point x="96" y="-234"/>
      <point x="136" y="-245"/>
    </contour>
    <contour>
      <point x="210" y="59" type="curve" smooth="yes"/>
      <point x="157" y="59"/>
      <point x="121" y="117"/>
      <point x="121" y="242" type="curve" smooth="yes"/>
      <point x="121" y="361"/>
      <point x="153" y="432"/>
      <point x="212" y="432" type="curve" smooth="yes"/>
      <point x="270" y="432"/>
      <point x="302" y="379"/>
      <point x="302" y="281" type="curve" smooth="yes"/>
      <point x="302" y="222" type="line" smooth="yes"/>
      <point x="302" y="119"/>
      <point x="267" y="59"/>
    </contour>
  </outline>
</glyph>
<glyph name="uni0582" format="2">
  <advance width="232"/>
  <unicode hex="0582"/>
  <note>
uni0582
</note>
  <outline>
    <contour>
      <point x="63" y="0" type="line"/>
      <point x="231" y="0" type="line"/>
      <point x="231" y="70" type="line"/>
      <point x="146" y="70" type="line"/>
      <point x="146" y="492" type="line"/>
      <point x="63" y="492" type="line"/>
    </contour>
  </outline>
</glyph>
<glyph name="uni0583" format="2">
  <advance width="661"/>
  <unicode hex="0583"/>
  <note>
uni0583
</note>
  <outline>
    <contour>
      <point x="482" y="502" type="curve" smooth="yes"/>
      <point x="426" y="502"/>
      <point x="392" y="476"/>
      <point x="375" y="425" type="curve"/>
      <point x="371" y="425" type="line"/>
      <point x="373" y="452"/>
      <point x="374" y="480"/>
      <point x="374" y="507" type="curve" smooth="yes"/>
      <point x="374" y="760" type="line"/>
      <point x="291" y="760" type="line"/>
      <point x="291" y="252" type="line" smooth="yes"/>
      <point x="291" y="131"/>
      <point x="260" y="62"/>
      <point x="205" y="62" type="curve" smooth="yes"/>
      <point x="162" y="62"/>
      <point x="141" y="92"/>
      <point x="141" y="178" type="curve" smooth="yes"/>
      <point x="141" y="492" type="line"/>
      <point x="61" y="492" type="line"/>
      <point x="61" y="162" type="line" smooth="yes"/>
      <point x="61" y="37"/>
      <point x="106" y="-10"/>
      <point x="185" y="-10" type="curve" smooth="yes"/>
      <point x="235" y="-10"/>
      <point x="272" y="18"/>
      <point x="290" y="71" type="curve"/>
      <point x="293" y="71" type="line"/>
      <point x="292" y="45"/>
      <point x="291" y="19"/>
      <point x="291" y="-6" type="curve" smooth="yes"/>
      <point x="291" y="-235" type="line"/>
      <point x="371" y="-235" type="line"/>
      <point x="371" y="240" type="line" smooth="yes"/>
      <point x="371" y="361"/>
      <point x="401" y="430"/>
      <point x="456" y="430" type="curve" smooth="yes"/>
      <point x="499" y="430"/>
      <point x="520" y="399"/>
      <point x="520" y="314" type="curve" smooth="yes"/>
      <point x="520" y="0" type="line"/>
      <point x="600" y="0" type="line"/>
      <point x="600" y="330" type="line" smooth="yes"/>
      <point x="600" y="456"/>
      <point x="555" y="502"/>
    </contour>
  </outline>
</glyph>
<glyph name="uni0584" format="2">
  <advance width="448"/>
  <unicode hex="0584"/>
  <note>
uni0584
</note>
  <outline>
    <contour>
      <point x="66" y="-235" type="line"/>
      <point x="146" y="-235" type="line"/>
      <point x="146" y="-136" type="line"/>
      <point x="398" y="-136" type="line"/>
      <point x="398" y="-66" type="line"/>
      <point x="146" y="-66" type="line"/>
      <point x="146" y="-2" type="line" smooth="yes"/>
      <point x="146" y="15"/>
      <point x="144" y="41"/>
      <point x="142" y="78" type="curve"/>
      <point x="146" y="78" type="line"/>
      <point x="168" y="19"/>
      <point x="205" y="-10"/>
      <point x="262" y="-10" type="curve" smooth="yes"/>
      <point x="355" y="-10"/>
      <point x="408" y="84"/>
      <point x="408" y="243" type="curve" smooth="yes"/>
      <point x="408" y="399"/>
      <point x="355" y="502"/>
      <point x="258" y="502" type="curve" smooth="yes"/>
      <point x="199" y="502"/>
      <point x="164" y="476"/>
      <point x="145" y="420" type="curve"/>
      <point x="140" y="420" type="line"/>
      <point x="133" y="492" type="line"/>
      <point x="66" y="492" type="line"/>
      <point x="66" y="-66" type="line"/>
      <point x="6" y="-66" type="line"/>
      <point x="6" y="-136" type="line"/>
      <point x="66" y="-136" type="line"/>
    </contour>
    <contour>
      <point x="238" y="59" type="curve" smooth="yes"/>
      <point x="181" y="59"/>
      <point x="146" y="119"/>
      <point x="146" y="222" type="curve" smooth="yes"/>
      <point x="146" y="281" type="line" smooth="yes"/>
      <point x="146" y="379"/>
      <point x="178" y="432"/>
      <point x="236" y="432" type="curve" smooth="yes"/>
      <point x="295" y="432"/>
      <point x="327" y="361"/>
      <point x="327" y="242" type="curve" smooth="yes"/>
      <point x="327" y="117"/>
      <point x="291" y="59"/>
    </contour>
  </outline>
</glyph>
<glyph name="uni0585" format="2">
  <advance width="406"/>
  <unicode hex="0585"/>
  <note>
uni0585
</note>
  <anchor x="203" y="492" name="top"/>
  <outline>
    <contour>
      <point x="204" y="-12" type="curve" smooth="yes"/>
      <point x="308" y="-12"/>
      <point x="371" y="91"/>
      <point x="371" y="245" type="curve" smooth="yes"/>
      <point x="371" y="397"/>
      <point x="309" y="502"/>
      <point x="204" y="502" type="curve" smooth="yes"/>
      <point x="103" y="502"/>
      <point x="34" y="407"/>
      <point x="34" y="245" type="curve" smooth="yes"/>
      <point x="34" y="90"/>
      <point x="100" y="-12"/>
    </contour>
    <contour>
      <point x="203" y="60" type="curve" smooth="yes"/>
      <point x="148" y="60"/>
      <point x="118" y="125"/>
      <point x="118" y="246" type="curve" smooth="yes"/>
      <point x="118" y="366"/>
      <point x="148" y="430"/>
      <point x="204" y="430" type="curve" smooth="yes"/>
      <point x="264" y="430"/>
      <point x="288" y="353"/>
      <point x="288" y="246" type="curve" smooth="yes"/>
      <point x="288" y="124"/>
      <point x="258" y="60"/>
    </contour>
  </outline>
</glyph>
<glyph name="uni0586" format="2">
  <advance width="478"/>
  <unicode hex="0586"/>
  <note>
uni0586
</note>
  <outline>
    <contour>
      <point x="270" y="405" type="curve"/>
      <point x="270" y="716" type="line"/>
      <point x="225" y="716" type="line" smooth="yes"/>
      <point x="94" y="716"/>
      <point x="27" y="640"/>
      <point x="27" y="541" type="curve" smooth="yes"/>
      <point x="27" y="448"/>
      <point x="81" y="394"/>
      <point x="193" y="354" type="curve"/>
      <point x="193" y="60" type="line"/>
      <point x="144" y="63"/>
      <point x="80" y="83"/>
      <point x="21" y="115" type="curve"/>
      <point x="21" y="37" type="line"/>
      <point x="66" y="15"/>
      <point x="132" y="-4"/>
      <point x="193" y="-10" type="curve"/>
      <point x="193" y="-236" type="line"/>
      <point x="270" y="-236" type="line"/>
      <point x="270" y="-10" type="line"/>
      <point x="379" y="-2"/>
      <point x="444" y="73"/>
      <point x="444" y="184" type="curve" smooth="yes"/>
      <point x="444" y="305"/>
      <point x="383" y="365"/>
    </contour>
    <contour>
      <point x="107" y="543" type="curve" smooth="yes"/>
      <point x="107" y="603"/>
      <point x="139" y="645"/>
      <point x="193" y="646" type="curve"/>
      <point x="193" y="426" type="line"/>
      <point x="136" y="450"/>
      <point x="107" y="486"/>
    </contour>
    <contour>
      <point x="270" y="60" type="curve"/>
      <point x="270" y="333" type="line"/>
      <point x="326" y="314"/>
      <point x="363" y="262"/>
      <point x="363" y="181" type="curve" smooth="yes"/>
      <point x="363" y="114"/>
      <point x="335" y="64"/>
    </contour>
  </outline>
</glyph>
<glyph name="uni0587" format="2">
  <advance width="458"/>
  <unicode hex="0587"/>
  <note>
uni0587
</note>
  <outline>
    <contour>
      <point x="185" y="-10" type="curve" smooth="yes"/>
      <point x="239" y="-10"/>
      <point x="277" y="18"/>
      <point x="295" y="71" type="curve"/>
      <point x="298" y="71" type="line"/>
      <point x="307" y="0" type="line"/>
      <point x="456" y="0" type="line"/>
      <point x="456" y="70" type="line"/>
      <point x="371" y="70" type="line"/>
      <point x="371" y="492" type="line"/>
      <point x="291" y="492" type="line"/>
      <point x="291" y="252" type="line" smooth="yes"/>
      <point x="291" y="131"/>
      <point x="260" y="62"/>
      <point x="205" y="62" type="curve" smooth="yes"/>
      <point x="162" y="62"/>
      <point x="141" y="92"/>
      <point x="141" y="176" type="curve" smooth="yes"/>
      <point x="141" y="760" type="line"/>
      <point x="61" y="760" type="line"/>
      <point x="61" y="162" type="line" smooth="yes"/>
      <point x="61" y="37"/>
      <point x="106" y="-10"/>
    </contour>
  </outline>
</glyph>
<glyph name="uni0588" format="2">
  <advance width="268"/>
  <unicode hex="0588"/>
  <note>
uni0575
</note>
  <outline>
    <contour>
      <point x="93" y="145" type="line"/>
      <point x="173" y="145" type="line"/>
      <point x="173" y="492" type="line"/>
      <point x="93" y="492" type="line"/>
    </contour>
    <contour>
      <point x="93" y="145" type="line"/>
      <point x="93" y="84"/>
      <point x="97" y="54"/>
      <point x="106" y="14" type="curve" smooth="yes"/>
      <point x="115" y="-25"/>
      <point x="121" y="-62"/>
      <point x="121" y="-95" type="curve" smooth="yes"/>
      <point x="121" y="-141"/>
      <point x="103" y="-165"/>
      <point x="72" y="-165" type="curve" smooth="yes"/>
      <point x="61" y="-165" type="line"/>
      <point x="61" y="-235" type="line"/>
      <point x="86" y="-235" type="line" smooth="yes"/>
      <point x="160" y="-235"/>
      <point x="202" y="-183"/>
      <point x="202" y="-107" type="curve" smooth="yes"/>
      <point x="202" y="-59"/>
      <point x="194" y="-17"/>
      <point x="186" y="18" type="curve" smooth="yes"/>
      <point x="177" y="59"/>
      <point x="173" y="87"/>
      <point x="173" y="145" type="curve"/>
    </contour>
    <contour>
      <point x="6" y="157" type="line"/>
      <point x="6" y="87" type="line"/>
      <point x="260" y="87" type="line"/>
      <point x="260" y="157" type="line"/>
    </contour>
  </outline>
</glyph>
<glyph name="uni0589" format="2">
  <advance width="220"/>
  <unicode hex="0589"/>
  <note>
uni0589
</note>
  <outline>
    <contour>
      <point x="59" y="51" type="curve" smooth="yes"/>
      <point x="59" y="16"/>
      <point x="74" y="-8"/>
      <point x="111" y="-8" type="curve" smooth="yes"/>
      <point x="147" y="-8"/>
      <point x="162" y="15"/>
      <point x="162" y="51" type="curve" smooth="yes"/>
      <point x="162" y="86"/>
      <point x="147" y="109"/>
      <point x="111" y="109" type="curve" smooth="yes"/>
      <point x="74" y="109"/>
      <point x="59" y="86"/>
    </contour>
    <contour>
      <point x="59" y="453" type="curve" smooth="yes"/>
      <point x="59" y="417"/>
      <point x="76" y="395"/>
      <point x="111" y="395" type="curve" smooth="yes"/>
      <point x="144" y="395"/>
      <point x="162" y="416"/>
      <point x="162" y="453" type="curve" smooth="yes"/>
      <point x="162" y="492"/>
      <point x="146" y="512"/>
      <point x="112" y="512" type="curve" smooth="yes"/>
      <point x="75" y="512"/>
      <point x="59" y="489"/>
    </contour>
  </outline>
</glyph>
<glyph name="uni058A" format="2">
  <advance width="315"/>
  <unicode hex="058A"/>
  <note>
uni058A
</note>
  <outline>
    <contour>
      <point x="148" y="203" type="curve" smooth="yes"/>
      <point x="190" y="203"/>
      <point x="242" y="215"/>
      <point x="279" y="232" type="curve"/>
      <point x="279" y="292" type="line"/>
      <point x="238" y="279"/>
      <point x="202" y="272"/>
      <point x="164" y="272" type="curve" smooth="yes"/>
      <point x="125" y="272"/>
      <point x="107" y="285"/>
      <point x="107" y="334" type="curve"/>
      <point x="35" y="334" type="line"/>
      <point x="35" y="238"/>
      <point x="68" y="203"/>
    </contour>
  </outline>
</glyph>
<glyph name="uni058D" format="2">
  <advance width="813"/>
  <unicode hex="058D"/>
  <outline>
    <contour>
      <point x="407" y="-9" type="curve" smooth="yes"/>
      <point x="458" y="-9"/>
      <point x="504" y="10"/>
      <point x="540" y="42" type="curve"/>
      <point x="643" y="49"/>
      <point x="721" y="127"/>
      <point x="724" y="227" type="curve"/>
      <point x="757" y="263"/>
      <point x="776" y="308"/>
      <point x="776" y="357" type="curve" smooth="yes"/>
      <point x="776" y="408"/>
      <point x="756" y="454"/>
      <point x="724" y="488" type="curve"/>
      <point x="720" y="590"/>
      <point x="640" y="666"/>
      <point x="540" y="671" type="curve"/>
      <point x="505" y="704"/>
      <point x="458" y="723"/>
      <point x="407" y="723" type="curve" smooth="yes"/>
      <point x="356" y="723"/>
      <point x="309" y="704"/>
      <point x="274" y="672" type="curve"/>
      <point x="169" y="665"/>
      <point x="92" y="585"/>
      <point x="89" y="487" type="curve"/>
      <point x="56" y="451"/>
      <point x="37" y="405"/>
      <point x="37" y="357" type="curve" smooth="yes"/>
      <point x="37" y="306"/>
      <point x="57" y="260"/>
      <point x="90" y="226" type="curve"/>
      <point x="92" y="126"/>
      <point x="173" y="48"/>
      <point x="273" y="43" type="curve"/>
      <point x="309" y="10"/>
      <point x="357" y="-9"/>
    </contour>
    <contour>
      <point x="577" y="90" type="curve"/>
      <point x="594" y="118"/>
      <point x="603" y="150"/>
      <point x="603" y="184" type="curve" smooth="yes"/>
      <point x="603" y="273"/>
      <point x="541" y="348"/>
      <point x="457" y="370" type="curve"/>
      <point x="478" y="382"/>
      <point x="503" y="388"/>
      <point x="527" y="388" type="curve" smooth="yes"/>
      <point x="613" y="388"/>
      <point x="680" y="317"/>
      <point x="680" y="233" type="curve" smooth="yes"/>
      <point x="680" y="166"/>
      <point x="636" y="107"/>
    </contour>
    <contour>
      <point x="406" y="29" type="curve" smooth="yes"/>
      <point x="381" y="29"/>
      <point x="356" y="36"/>
      <point x="335" y="49" type="curve"/>
      <point x="421" y="70"/>
      <point x="479" y="147"/>
      <point x="479" y="234" type="curve" smooth="yes"/>
      <point x="479" y="267"/>
      <point x="471" y="299"/>
      <point x="453" y="328" type="curve"/>
      <point x="513" y="309"/>
      <point x="557" y="251"/>
      <point x="557" y="184" type="curve" smooth="yes"/>
      <point x="557" y="98"/>
      <point x="489" y="29"/>
    </contour>
    <contour>
      <point x="716" y="291" type="curve"/>
      <point x="690" y="373"/>
      <point x="615" y="427"/>
      <point x="531" y="427" type="curve" smooth="yes"/>
      <point x="498" y="427"/>
      <point x="466" y="419"/>
      <point x="437" y="403" type="curve"/>
      <point x="456" y="465"/>
      <point x="512" y="510"/>
      <point x="580" y="510" type="curve" smooth="yes"/>
      <point x="664" y="510"/>
      <point x="732" y="441"/>
      <point x="732" y="357" type="curve" smooth="yes"/>
      <point x="732" y="334"/>
      <point x="726" y="311"/>
    </contour>
    <contour>
      <point x="283" y="81" type="curve" smooth="yes"/>
      <point x="216" y="81"/>
      <point x="160" y="126"/>
      <point x="142" y="187" type="curve"/>
      <point x="169" y="172"/>
      <point x="201" y="163"/>
      <point x="234" y="163" type="curve" smooth="yes"/>
      <point x="322" y="163"/>
      <point x="396" y="221"/>
      <point x="420" y="300" type="curve"/>
      <point x="430" y="281"/>
      <point x="435" y="259"/>
      <point x="435" y="237" type="curve" smooth="yes"/>
      <point x="435" y="149"/>
      <point x="366" y="81"/>
    </contour>
    <contour>
      <point x="394" y="414" type="curve"/>
      <point x="383" y="433"/>
      <point x="378" y="455"/>
      <point x="378" y="477" type="curve" smooth="yes"/>
      <point x="378" y="565"/>
      <point x="447" y="633"/>
      <point x="531" y="633" type="curve" smooth="yes"/>
      <point x="596" y="633"/>
      <point x="654" y="590"/>
      <point x="672" y="527" type="curve"/>
      <point x="645" y="542"/>
      <point x="613" y="551"/>
      <point x="579" y="551" type="curve" smooth="yes"/>
      <point x="492" y="551"/>
      <point x="418" y="493"/>
    </contour>
    <contour>
      <point x="234" y="204" type="curve" smooth="yes"/>
      <point x="150" y="204"/>
      <point x="82" y="273"/>
      <point x="82" y="357" type="curve" smooth="yes"/>
      <point x="82" y="380"/>
      <point x="88" y="403"/>
      <point x="98" y="423" type="curve"/>
      <point x="123" y="341"/>
      <point x="199" y="287"/>
      <point x="283" y="287" type="curve" smooth="yes"/>
      <point x="315" y="287"/>
      <point x="347" y="295"/>
      <point x="377" y="311" type="curve"/>
      <point x="358" y="249"/>
      <point x="301" y="204"/>
    </contour>
    <contour>
      <point x="360" y="386" type="curve"/>
      <point x="300" y="405"/>
      <point x="257" y="463"/>
      <point x="257" y="530" type="curve" smooth="yes"/>
      <point x="257" y="616"/>
      <point x="324" y="685"/>
      <point x="407" y="685" type="curve" smooth="yes"/>
      <point x="432" y="685"/>
      <point x="458" y="678"/>
      <point x="479" y="665" type="curve"/>
      <point x="393" y="644"/>
      <point x="334" y="567"/>
      <point x="334" y="480" type="curve" smooth="yes"/>
      <point x="334" y="447"/>
      <point x="342" y="415"/>
    </contour>
    <contour>
      <point x="286" y="326" type="curve" smooth="yes"/>
      <point x="200" y="326"/>
      <point x="133" y="397"/>
      <point x="133" y="481" type="curve" smooth="yes"/>
      <point x="133" y="548"/>
      <point x="176" y="604"/>
      <point x="236" y="625" type="curve"/>
      <point x="219" y="597"/>
      <point x="210" y="565"/>
      <point x="210" y="530" type="curve" smooth="yes"/>
      <point x="210" y="441"/>
      <point x="272" y="366"/>
      <point x="356" y="344" type="curve"/>
      <point x="335" y="332"/>
      <point x="310" y="326"/>
    </contour>
  </outline>
</glyph>
<glyph name="uni058E" format="2">
  <advance width="813"/>
  <unicode hex="058E"/>
  <outline>
    <contour>
      <point x="407" y="-9" type="curve" smooth="yes"/>
      <point x="457" y="-9"/>
      <point x="505" y="10"/>
      <point x="540" y="43" type="curve"/>
      <point x="640" y="48"/>
      <point x="721" y="126"/>
      <point x="724" y="226" type="curve"/>
      <point x="756" y="260"/>
      <point x="776" y="306"/>
      <point x="776" y="357" type="curve" smooth="yes"/>
      <point x="776" y="405"/>
      <point x="757" y="451"/>
      <point x="724" y="487" type="curve"/>
      <point x="721" y="585"/>
      <point x="645" y="665"/>
      <point x="540" y="672" type="curve"/>
      <point x="505" y="704"/>
      <point x="457" y="723"/>
      <point x="407" y="723" type="curve" smooth="yes"/>
      <point x="356" y="723"/>
      <point x="309" y="704"/>
      <point x="273" y="671" type="curve"/>
      <point x="174" y="666"/>
      <point x="94" y="590"/>
      <point x="90" y="488" type="curve"/>
      <point x="57" y="454"/>
      <point x="37" y="408"/>
      <point x="37" y="357" type="curve" smooth="yes"/>
      <point x="37" y="308"/>
      <point x="56" y="263"/>
      <point x="89" y="227" type="curve"/>
      <point x="92" y="127"/>
      <point x="170" y="49"/>
      <point x="273" y="42" type="curve"/>
      <point x="309" y="10"/>
      <point x="356" y="-9"/>
    </contour>
    <contour>
      <point x="236" y="90" type="curve"/>
      <point x="178" y="107"/>
      <point x="133" y="166"/>
      <point x="133" y="233" type="curve" smooth="yes"/>
      <point x="133" y="317"/>
      <point x="200" y="388"/>
      <point x="286" y="388" type="curve" smooth="yes"/>
      <point x="310" y="388"/>
      <point x="335" y="382"/>
      <point x="356" y="370" type="curve"/>
      <point x="272" y="348"/>
      <point x="210" y="273"/>
      <point x="210" y="184" type="curve" smooth="yes"/>
      <point x="210" y="150"/>
      <point x="219" y="118"/>
    </contour>
    <contour>
      <point x="407" y="29" type="curve" smooth="yes"/>
      <point x="324" y="29"/>
      <point x="257" y="98"/>
      <point x="257" y="184" type="curve" smooth="yes"/>
      <point x="257" y="251"/>
      <point x="300" y="309"/>
      <point x="360" y="328" type="curve"/>
      <point x="342" y="299"/>
      <point x="334" y="267"/>
      <point x="334" y="234" type="curve" smooth="yes"/>
      <point x="334" y="147"/>
      <point x="393" y="70"/>
      <point x="479" y="49" type="curve"/>
      <point x="457" y="36"/>
      <point x="433" y="29"/>
    </contour>
    <contour>
      <point x="98" y="291" type="curve"/>
      <point x="87" y="311"/>
      <point x="82" y="334"/>
      <point x="82" y="357" type="curve" smooth="yes"/>
      <point x="82" y="441"/>
      <point x="150" y="510"/>
      <point x="234" y="510" type="curve" smooth="yes"/>
      <point x="301" y="510"/>
      <point x="358" y="465"/>
      <point x="377" y="403" type="curve"/>
      <point x="347" y="419"/>
      <point x="315" y="427"/>
      <point x="283" y="427" type="curve" smooth="yes"/>
      <point x="199" y="427"/>
      <point x="123" y="373"/>
    </contour>
    <contour>
      <point x="531" y="81" type="curve" smooth="yes"/>
      <point x="447" y="81"/>
      <point x="378" y="149"/>
      <point x="378" y="237" type="curve" smooth="yes"/>
      <point x="378" y="259"/>
      <point x="383" y="281"/>
      <point x="394" y="300" type="curve"/>
      <point x="418" y="221"/>
      <point x="492" y="163"/>
      <point x="579" y="163" type="curve" smooth="yes"/>
      <point x="613" y="163"/>
      <point x="645" y="172"/>
      <point x="671" y="187" type="curve"/>
      <point x="653" y="126"/>
      <point x="597" y="81"/>
    </contour>
    <contour>
      <point x="419" y="414" type="curve"/>
      <point x="395" y="493"/>
      <point x="321" y="551"/>
      <point x="234" y="551" type="curve" smooth="yes"/>
      <point x="200" y="551"/>
      <point x="168" y="542"/>
      <point x="141" y="527" type="curve"/>
      <point x="159" y="590"/>
      <point x="217" y="633"/>
      <point x="282" y="633" type="curve" smooth="yes"/>
      <point x="366" y="633"/>
      <point x="435" y="565"/>
      <point x="435" y="477" type="curve" smooth="yes"/>
      <point x="435" y="455"/>
      <point x="430" y="433"/>
    </contour>
    <contour>
      <point x="580" y="204" type="curve" smooth="yes"/>
      <point x="512" y="204"/>
      <point x="456" y="249"/>
      <point x="437" y="311" type="curve"/>
      <point x="466" y="295"/>
      <point x="498" y="287"/>
      <point x="531" y="287" type="curve" smooth="yes"/>
      <point x="615" y="287"/>
      <point x="691" y="341"/>
      <point x="715" y="423" type="curve"/>
      <point x="726" y="403"/>
      <point x="732" y="380"/>
      <point x="732" y="357" type="curve" smooth="yes"/>
      <point x="732" y="273"/>
      <point x="664" y="204"/>
    </contour>
    <contour>
      <point x="453" y="386" type="curve"/>
      <point x="471" y="415"/>
      <point x="479" y="447"/>
      <point x="479" y="480" type="curve" smooth="yes"/>
      <point x="479" y="567"/>
      <point x="421" y="644"/>
      <point x="335" y="665" type="curve"/>
      <point x="356" y="678"/>
      <point x="381" y="685"/>
      <point x="406" y="685" type="curve" smooth="yes"/>
      <point x="489" y="685"/>
      <point x="557" y="616"/>
      <point x="557" y="530" type="curve" smooth="yes"/>
      <point x="557" y="463"/>
      <point x="513" y="405"/>
    </contour>
    <contour>
      <point x="527" y="326" type="curve" smooth="yes"/>
      <point x="503" y="326"/>
      <point x="478" y="332"/>
      <point x="457" y="344" type="curve"/>
      <point x="541" y="366"/>
      <point x="603" y="441"/>
      <point x="603" y="530" type="curve" smooth="yes"/>
      <point x="603" y="565"/>
      <point x="594" y="597"/>
      <point x="577" y="625" type="curve"/>
      <point x="637" y="604"/>
      <point x="680" y="548"/>
      <point x="680" y="481" type="curve" smooth="yes"/>
      <point x="680" y="397"/>
      <point x="613" y="326"/>
    </contour>
  </outline>
</glyph>
<glyph name="uni058F" format="2">
  <advance width="534"/>
  <unicode hex="058F"/>
  <note>
uni058F
</note>
  <outline>
    <contour>
      <point x="440" y="0" type="line"/>
      <point x="440" y="489" type="line" smooth="yes"/>
      <point x="440" y="650"/>
      <point x="370" y="724"/>
      <point x="242" y="724" type="curve" smooth="yes"/>
      <point x="122" y="724"/>
      <point x="43" y="651"/>
      <point x="43" y="467" type="curve"/>
      <point x="126" y="467" type="line"/>
      <point x="126" y="612"/>
      <point x="170" y="652"/>
      <point x="241" y="652" type="curve" smooth="yes"/>
      <point x="315" y="652"/>
      <point x="357" y="606"/>
      <point x="357" y="483" type="curve" smooth="yes"/>
      <point x="357" y="0" type="line"/>
    </contour>
    <contour>
      <point x="272" y="395" type="line"/>
      <point x="272" y="334" type="line"/>
      <point x="525" y="334" type="line"/>
      <point x="525" y="395" type="line"/>
    </contour>
    <contour>
      <point x="272" y="261" type="line"/>
      <point x="272" y="199" type="line"/>
      <point x="525" y="199" type="line"/>
      <point x="525" y="261" type="line"/>
    </contour>
  </outline>
</glyph>
<glyph name="uniFB13" format="2">
  <advance width="852"/>
  <unicode hex="FB13"/>
  <note>
uniFB13
</note>
  <outline>
    <contour>
      <point x="371" y="452" type="line" smooth="yes"/>
      <point x="371" y="497"/>
      <point x="361" y="529"/>
      <point x="338" y="563" type="curve" smooth="yes"/>
      <point x="315" y="596"/>
      <point x="306" y="617"/>
      <point x="306" y="642" type="curve" smooth="yes"/>
      <point x="306" y="675"/>
      <point x="315" y="690"/>
      <point x="341" y="690" type="curve" smooth="yes"/>
      <point x="510" y="690" type="line"/>
      <point x="510" y="760" type="line"/>
      <point x="337" y="760" type="line" smooth="yes"/>
      <point x="278" y="760"/>
      <point x="226" y="728"/>
      <point x="226" y="639" type="curve" smooth="yes"/>
      <point x="226" y="603"/>
      <point x="237" y="576"/>
      <point x="261" y="539" type="curve" smooth="yes"/>
      <point x="282" y="507"/>
      <point x="291" y="483"/>
      <point x="291" y="448" type="curve" smooth="yes"/>
      <point x="291" y="252" type="line" smooth="yes"/>
      <point x="291" y="131"/>
      <point x="260" y="62"/>
      <point x="205" y="62" type="curve" smooth="yes"/>
      <point x="162" y="62"/>
      <point x="141" y="92"/>
      <point x="141" y="178" type="curve" smooth="yes"/>
      <point x="141" y="492" type="line"/>
      <point x="61" y="492" type="line"/>
      <point x="61" y="162" type="line" smooth="yes"/>
      <point x="61" y="37"/>
      <point x="106" y="-10"/>
      <point x="185" y="-10" type="curve" smooth="yes"/>
      <point x="239" y="-10"/>
      <point x="277" y="18"/>
      <point x="295" y="71" type="curve"/>
      <point x="298" y="71" type="line"/>
      <point x="307" y="0" type="line"/>
      <point x="371" y="0" type="line"/>
    </contour>
    <contour>
      <point x="539" y="516" type="line"/>
      <point x="486" y="398"/>
      <point x="461" y="309"/>
      <point x="461" y="200" type="curve" smooth="yes"/>
      <point x="461" y="72"/>
      <point x="506" y="-10"/>
      <point x="593" y="-10" type="curve" smooth="yes"/>
      <point x="655" y="-10"/>
      <point x="692" y="18"/>
      <point x="713" y="71" type="curve"/>
      <point x="717" y="71" type="line"/>
      <point x="726" y="0" type="line"/>
      <point x="789" y="0" type="line"/>
      <point x="789" y="492" type="line"/>
      <point x="709" y="492" type="line"/>
      <point x="709" y="252" type="line" smooth="yes"/>
      <point x="709" y="123"/>
      <point x="679" y="62"/>
      <point x="616" y="62" type="curve" smooth="yes"/>
      <point x="566" y="62"/>
      <point x="541" y="125"/>
      <point x="541" y="202" type="curve" smooth="yes"/>
      <point x="541" y="322"/>
      <point x="571" y="429"/>
      <point x="611" y="529" type="curve"/>
      <point x="611" y="541" type="line"/>
      <point x="553" y="541" type="line"/>
    </contour>
    <contour>
      <point x="611" y="541" type="line"/>
      <point x="568" y="583" type="line" smooth="yes"/>
      <point x="543" y="607"/>
      <point x="533" y="618"/>
      <point x="533" y="635" type="curve" smooth="yes"/>
      <point x="533" y="651"/>
      <point x="541" y="672"/>
      <point x="552" y="692" type="curve" smooth="yes"/>
      <point x="574" y="734" type="line"/>
      <point x="509" y="760" type="line"/>
      <point x="478" y="697" type="line" smooth="yes"/>
      <point x="467" y="674"/>
      <point x="461" y="653"/>
      <point x="461" y="630" type="curve" smooth="yes"/>
      <point x="461" y="598"/>
      <point x="473" y="579"/>
      <point x="499" y="554" type="curve" smooth="yes"/>
      <point x="539" y="516" type="line"/>
    </contour>
  </outline>
</glyph>
<glyph name="uniFB14" format="2">
  <advance width="848"/>
  <unicode hex="FB14"/>
  <note>
uniFB14
</note>
  <outline>
    <contour>
      <point x="371" y="452" type="line" smooth="yes"/>
      <point x="371" y="498"/>
      <point x="361" y="529"/>
      <point x="338" y="563" type="curve" smooth="yes"/>
      <point x="315" y="596"/>
      <point x="306" y="617"/>
      <point x="306" y="642" type="curve" smooth="yes"/>
      <point x="306" y="674"/>
      <point x="315" y="690"/>
      <point x="341" y="690" type="curve" smooth="yes"/>
      <point x="498" y="690" type="line"/>
      <point x="498" y="760" type="line"/>
      <point x="337" y="760" type="line" smooth="yes"/>
      <point x="278" y="760"/>
      <point x="226" y="728"/>
      <point x="226" y="639" type="curve" smooth="yes"/>
      <point x="226" y="603"/>
      <point x="238" y="575"/>
      <point x="261" y="539" type="curve" smooth="yes"/>
      <point x="282" y="506"/>
      <point x="291" y="483"/>
      <point x="291" y="448" type="curve" smooth="yes"/>
      <point x="291" y="252" type="line" smooth="yes"/>
      <point x="291" y="131"/>
      <point x="260" y="62"/>
      <point x="205" y="62" type="curve" smooth="yes"/>
      <point x="162" y="62"/>
      <point x="141" y="92"/>
      <point x="141" y="176" type="curve" smooth="yes"/>
      <point x="141" y="492" type="line"/>
      <point x="61" y="492" type="line"/>
      <point x="61" y="162" type="line" smooth="yes"/>
      <point x="61" y="37"/>
      <point x="106" y="-10"/>
      <point x="185" y="-10" type="curve" smooth="yes"/>
      <point x="239" y="-10"/>
      <point x="277" y="18"/>
      <point x="295" y="71" type="curve"/>
      <point x="298" y="71" type="line"/>
      <point x="307" y="0" type="line"/>
      <point x="371" y="0" type="line"/>
    </contour>
    <contour>
      <point x="783" y="316" type="line"/>
      <point x="703" y="316" type="line"/>
      <point x="703" y="252" type="line" smooth="yes"/>
      <point x="703" y="131"/>
      <point x="672" y="62"/>
      <point x="617" y="62" type="curve" smooth="yes"/>
      <point x="574" y="62"/>
      <point x="553" y="92"/>
      <point x="553" y="176" type="curve" smooth="yes"/>
      <point x="553" y="760" type="line"/>
      <point x="473" y="760" type="line"/>
      <point x="473" y="162" type="line" smooth="yes"/>
      <point x="473" y="37"/>
      <point x="518" y="-10"/>
      <point x="597" y="-10" type="curve" smooth="yes"/>
      <point x="651" y="-10"/>
      <point x="689" y="18"/>
      <point x="707" y="71" type="curve"/>
      <point x="710" y="71" type="line"/>
      <point x="719" y="0" type="line"/>
      <point x="783" y="0" type="line"/>
    </contour>
    <contour>
      <point x="522" y="492" type="line"/>
      <point x="522" y="422" type="line"/>
      <point x="787" y="422" type="line"/>
      <point x="787" y="492" type="line"/>
    </contour>
  </outline>
</glyph>
<glyph name="uniFB15" format="2">
  <advance width="844"/>
  <unicode hex="FB15"/>
  <note>
uniFB15
</note>
  <outline>
    <contour>
      <point x="371" y="452" type="line" smooth="yes"/>
      <point x="371" y="501"/>
      <point x="361" y="528"/>
      <point x="338" y="563" type="curve" smooth="yes"/>
      <point x="315" y="597"/>
      <point x="306" y="616"/>
      <point x="306" y="641" type="curve" smooth="yes"/>
      <point x="306" y="674"/>
      <point x="315" y="690"/>
      <point x="341" y="690" type="curve" smooth="yes"/>
      <point x="521" y="690" type="line"/>
      <point x="521" y="760" type="line"/>
      <point x="337" y="760" type="line" smooth="yes"/>
      <point x="278" y="760"/>
      <point x="226" y="728"/>
      <point x="226" y="639" type="curve" smooth="yes"/>
      <point x="226" y="603"/>
      <point x="238" y="576"/>
      <point x="261" y="539" type="curve" smooth="yes"/>
      <point x="281" y="506"/>
      <point x="291" y="483"/>
      <point x="291" y="448" type="curve" smooth="yes"/>
      <point x="291" y="252" type="line" smooth="yes"/>
      <point x="291" y="131"/>
      <point x="260" y="62"/>
      <point x="205" y="62" type="curve" smooth="yes"/>
      <point x="162" y="62"/>
      <point x="141" y="92"/>
      <point x="141" y="178" type="curve" smooth="yes"/>
      <point x="141" y="492" type="line"/>
      <point x="61" y="492" type="line"/>
      <point x="61" y="162" type="line" smooth="yes"/>
      <point x="61" y="37"/>
      <point x="106" y="-10"/>
      <point x="185" y="-10" type="curve" smooth="yes"/>
      <point x="239" y="-10"/>
      <point x="277" y="18"/>
      <point x="295" y="71" type="curve"/>
      <point x="298" y="71" type="line"/>
      <point x="307" y="0" type="line"/>
      <point x="371" y="0" type="line"/>
    </contour>
    <contour>
      <point x="556" y="760" type="line"/>
      <point x="473" y="760" type="line"/>
      <point x="473" y="-235" type="line"/>
      <point x="553" y="-235" type="line"/>
      <point x="553" y="240" type="line" smooth="yes"/>
      <point x="553" y="361"/>
      <point x="583" y="430"/>
      <point x="638" y="430" type="curve" smooth="yes"/>
      <point x="682" y="430"/>
      <point x="703" y="398"/>
      <point x="703" y="314" type="curve" smooth="yes"/>
      <point x="703" y="0" type="line"/>
      <point x="783" y="0" type="line"/>
      <point x="783" y="330" type="line" smooth="yes"/>
      <point x="783" y="456"/>
      <point x="737" y="502"/>
      <point x="665" y="502" type="curve" smooth="yes"/>
      <point x="609" y="502"/>
      <point x="574" y="476"/>
      <point x="557" y="425" type="curve"/>
      <point x="553" y="425" type="line"/>
      <point x="555" y="452"/>
      <point x="556" y="480"/>
      <point x="556" y="507" type="curve" smooth="yes"/>
    </contour>
  </outline>
</glyph>
<glyph name="uniFB16" format="2">
  <advance width="852"/>
  <unicode hex="FB16"/>
  <note>
uniFB16
</note>
  <outline>
    <contour>
      <point x="371" y="-166" type="line"/>
      <point x="371" y="760" type="line"/>
      <point x="291" y="760" type="line"/>
      <point x="291" y="252" type="line" smooth="yes"/>
      <point x="291" y="131"/>
      <point x="260" y="62"/>
      <point x="205" y="62" type="curve" smooth="yes"/>
      <point x="162" y="62"/>
      <point x="141" y="94"/>
      <point x="141" y="178" type="curve" smooth="yes"/>
      <point x="141" y="492" type="line"/>
      <point x="61" y="492" type="line"/>
      <point x="61" y="162" type="line" smooth="yes"/>
      <point x="61" y="37"/>
      <point x="106" y="-10"/>
      <point x="180" y="-10" type="curve" smooth="yes"/>
      <point x="237" y="-10"/>
      <point x="272" y="18"/>
      <point x="290" y="71" type="curve"/>
      <point x="293" y="71" type="line"/>
      <point x="292" y="45"/>
      <point x="291" y="19"/>
      <point x="291" y="-7" type="curve" smooth="yes"/>
      <point x="291" y="-235" type="line"/>
      <point x="456" y="-235" type="line"/>
      <point x="456" y="-166" type="line"/>
    </contour>
    <contour>
      <point x="326" y="760" type="line"/>
      <point x="326" y="690" type="line"/>
      <point x="509" y="690" type="line"/>
      <point x="509" y="760" type="line"/>
    </contour>
    <contour>
      <point x="539" y="514" type="line"/>
      <point x="489" y="408"/>
      <point x="461" y="313"/>
      <point x="461" y="200" type="curve" smooth="yes"/>
      <point x="461" y="72"/>
      <point x="506" y="-10"/>
      <point x="593" y="-10" type="curve" smooth="yes"/>
      <point x="655" y="-10"/>
      <point x="692" y="18"/>
      <point x="713" y="71" type="curve"/>
      <point x="717" y="71" type="line"/>
      <point x="726" y="0" type="line"/>
      <point x="789" y="0" type="line"/>
      <point x="789" y="492" type="line"/>
      <point x="709" y="492" type="line"/>
      <point x="709" y="252" type="line" smooth="yes"/>
      <point x="709" y="123"/>
      <point x="679" y="62"/>
      <point x="616" y="62" type="curve" smooth="yes"/>
      <point x="566" y="62"/>
      <point x="541" y="126"/>
      <point x="541" y="202" type="curve" smooth="yes"/>
      <point x="541" y="322"/>
      <point x="571" y="429"/>
      <point x="611" y="529" type="curve"/>
      <point x="611" y="541" type="line"/>
      <point x="553" y="541" type="line"/>
    </contour>
    <contour>
      <point x="611" y="541" type="line"/>
      <point x="571" y="582" type="line" smooth="yes"/>
      <point x="547" y="607"/>
      <point x="533" y="622"/>
      <point x="533" y="639" type="curve" smooth="yes"/>
      <point x="533" y="655"/>
      <point x="540" y="671"/>
      <point x="552" y="692" type="curve" smooth="yes"/>
      <point x="575" y="734" type="line"/>
      <point x="509" y="760" type="line"/>
      <point x="478" y="698" type="line" smooth="yes"/>
      <point x="466" y="675"/>
      <point x="461" y="653"/>
      <point x="461" y="630" type="curve" smooth="yes"/>
      <point x="461" y="603"/>
      <point x="473" y="580"/>
      <point x="499" y="554" type="curve" smooth="yes"/>
      <point x="539" y="514" type="line"/>
    </contour>
  </outline>
</glyph>
<glyph name="uniFB17" format="2">
  <advance width="1075"/>
  <unicode hex="FB17"/>
  <note>
uniFB17
</note>
  <outline>
    <contour>
      <point x="371" y="452" type="line" smooth="yes"/>
      <point x="371" y="499"/>
      <point x="361" y="529"/>
      <point x="338" y="563" type="curve" smooth="yes"/>
      <point x="315" y="596"/>
      <point x="306" y="617"/>
      <point x="306" y="642" type="curve" smooth="yes"/>
      <point x="306" y="674"/>
      <point x="315" y="690"/>
      <point x="341" y="690" type="curve" smooth="yes"/>
      <point x="521" y="690" type="line"/>
      <point x="521" y="760" type="line"/>
      <point x="337" y="760" type="line" smooth="yes"/>
      <point x="278" y="760"/>
      <point x="226" y="728"/>
      <point x="226" y="639" type="curve" smooth="yes"/>
      <point x="226" y="603"/>
      <point x="237" y="576"/>
      <point x="261" y="539" type="curve" smooth="yes"/>
      <point x="282" y="507"/>
      <point x="291" y="483"/>
      <point x="291" y="448" type="curve" smooth="yes"/>
      <point x="291" y="252" type="line" smooth="yes"/>
      <point x="291" y="131"/>
      <point x="260" y="62"/>
      <point x="205" y="62" type="curve" smooth="yes"/>
      <point x="162" y="62"/>
      <point x="141" y="92"/>
      <point x="141" y="178" type="curve" smooth="yes"/>
      <point x="141" y="492" type="line"/>
      <point x="61" y="492" type="line"/>
      <point x="61" y="162" type="line" smooth="yes"/>
      <point x="61" y="37"/>
      <point x="106" y="-10"/>
      <point x="185" y="-10" type="curve" smooth="yes"/>
      <point x="239" y="-10"/>
      <point x="277" y="18"/>
      <point x="295" y="71" type="curve"/>
      <point x="298" y="71" type="line"/>
      <point x="307" y="0" type="line"/>
      <point x="371" y="0" type="line"/>
    </contour>
    <contour>
      <point x="932" y="492" type="line"/>
      <point x="932" y="252" type="line" smooth="yes"/>
      <point x="932" y="131"/>
      <point x="902" y="62"/>
      <point x="847" y="62" type="curve" smooth="yes"/>
      <point x="804" y="62"/>
      <point x="783" y="92"/>
      <point x="783" y="178" type="curve" smooth="yes"/>
      <point x="783" y="330" type="line" smooth="yes"/>
      <point x="783" y="456"/>
      <point x="737" y="502"/>
      <point x="665" y="502" type="curve" smooth="yes"/>
      <point x="609" y="502"/>
      <point x="574" y="476"/>
      <point x="557" y="425" type="curve"/>
      <point x="553" y="425" type="line"/>
      <point x="555" y="452"/>
      <point x="556" y="480"/>
      <point x="556" y="507" type="curve" smooth="yes"/>
      <point x="556" y="760" type="line"/>
      <point x="473" y="760" type="line"/>
      <point x="473" y="-235" type="line"/>
      <point x="553" y="-235" type="line"/>
      <point x="553" y="240" type="line" smooth="yes"/>
      <point x="553" y="361"/>
      <point x="583" y="429"/>
      <point x="638" y="429" type="curve" smooth="yes"/>
      <point x="682" y="429"/>
      <point x="703" y="398"/>
      <point x="703" y="314" type="curve" smooth="yes"/>
      <point x="703" y="162" type="line" smooth="yes"/>
      <point x="703" y="37"/>
      <point x="748" y="-10"/>
      <point x="826" y="-10" type="curve" smooth="yes"/>
      <point x="881" y="-10"/>
      <point x="919" y="18"/>
      <point x="936" y="71" type="curve"/>
      <point x="940" y="71" type="line"/>
      <point x="949" y="0" type="line"/>
      <point x="1012" y="0" type="line"/>
      <point x="1012" y="492" type="line"/>
    </contour>
  </outline>
</glyph>
